<svg xmlns="http://www.w3.org/2000/svg"><style>:root svg:not(:target){display:none}</style><svg fill="none" viewBox="0 0 32 32" id="alarm"><path fill="#fff" d="M8.54 1c-1.06 0-1.06 1.58 0 1.58h6.64v1.6C8.38 4.63 3 10.42 3 17.49c0 4.02 1.74 7.64 4.5 10.07.47.43.54 1.18.1 1.64l-1.53 1.55c-.74.69.36 1.75 1.03 1l2-2.03c.35-.34.87-.43 1.3-.21a12.7 12.7 0 0 0 11.07.06c.43-.21.96-.13 1.3.21l1.94 1.97c.68.64 1.65-.31 1.04-1l-1.45-1.48c-.44-.45-.38-1.2.1-1.63A13.46 13.46 0 0 0 29 17.47C29 10.4 23.59 4.6 16.78 4.2V2.6h6.64c1.06 0 1.06-1.59 0-1.59H8.54Zm-4.1 16.47A11.7 11.7 0 0 1 16 5.65c6.38 0 11.55 5.3 11.55 11.82 0 6.55-5.17 11.85-11.55 11.85-6.38 0-11.57-5.3-11.57-11.85Zm10.75-8.09c0-1.1 1.66-1.1 1.66 0v8.63a.84.84 0 0 1-.85.85.81.81 0 0 1-.8-.8V9.39ZM10.22 12a1.16 1.16 0 0 0 1.16-1.15 1.15 1.15 0 0 0-1.16-1.15 1.16 1.16 0 0 0-1.05 1.14A1.15 1.15 0 0 0 10.22 12Zm11.55 0a1.16 1.16 0 0 0 1.16-1.15 1.15 1.15 0 0 0-1.16-1.15 1.16 1.16 0 0 0-1.05 1.14A1.15 1.15 0 0 0 21.77 12Zm-10.4 12.59c0 1.53-2.31 1.53-2.31 0s2.32-1.53 2.32 0ZM16 28.03a1.17 1.17 0 0 0 1.17-.68 1.14 1.14 0 0 0-.7-1.56 1.17 1.17 0 0 0-1.22.32 1.15 1.15 0 0 0 .75 1.92ZM7.91 17.64a1.14 1.14 0 0 1-.68 1.17 1.17 1.17 0 0 1-1.57-.7 1.14 1.14 0 0 1 .32-1.2 1.16 1.16 0 0 1 1.93.73Zm17.33 1.15a1.16 1.16 0 0 0 1.17-.68 1.14 1.14 0 0 0-.7-1.55 1.17 1.17 0 0 0-1.22.32 1.15 1.15 0 0 0 .75 1.91Zm-2.31 5.8c0 1.53-2.32 1.53-2.32 0s2.32-1.53 2.32 0Z"></path></svg><svg fill="none" viewBox="0 0 32 12" id="arrow"><path stroke="#000" stroke-width="2" d="M0 6h26"></path><path fill="#000" d="m32 6-6.75 5.2V.8L32 6Z"></path></svg><svg viewBox="0 0 24 24" id="burger"><path stroke="#000" stroke-width="1.5" d="M0 4.25h24m-24 8h24m-24 8h24"></path></svg><svg fill="none" id="cat-pro" viewBox="0 0 67 57"><circle cx="34" cy="28" r="25" fill="#68B738"></circle><g clip-path="url(#cat-pro_0)"><path d="M61.56 16.878a7.602 7.602 0 0 1 2.25-2.3c.5-.35.8-.35 1.1.3.4.95.75 1.95.45 3a1.144 1.144 0 0 0 .2 1.05c.3.4.55.8.8 1.15a3.135 3.135 0 0 1 .45 3.1 2.716 2.716 0 0 0-.1 1.55c.099.495.099 1.005 0 1.5a1.875 1.875 0 0 1-1.35 1.6c-.64.122-1.211.479-1.6 1a.525.525 0 0 1-.45.25c-.6.1-2.1-1.25-2.1-1.85v-.3c.05-1.8-.05-1.95-1.7-2.7a2.195 2.195 0 0 1-.9-.6c-.3-.4-.7-.35-1.15-.2-.45.15-.7.45-.65.95.15 1.21.2 2.432.15 3.65a.94.94 0 0 0 .1.4c1.55 2.25 2.15 4.9 2.9 7.45.6 1.95 1.7 3 3.7 3.15.32.026.637.076.95.15a2.08 2.08 0 0 1 1.7 1.6c.35 1.05.15 1.3-.9 1.3h-3.25a1.62 1.62 0 0 1-1.15-.4 5.856 5.856 0 0 0-1.7-1 3.63 3.63 0 0 1-1.7-1.3 14.307 14.307 0 0 0-2-2.25c-1.4-1.45-2.9-2.85-4.2-4.35a5.69 5.69 0 0 1-1.6-3.8c0-.45-.1-.65-.6-.45a.965.965 0 0 1-.5.15c-1.4 0-2.1.85-2.6 2.1-.45 1.05-1.05 2.05-1.6 3.1a5.195 5.195 0 0 0-.5 2.1c0 1.2.3 1.6 1.4 2 .7.25 1.35.5 1.7 1.2.4.8.3 1-.55 1.05h-3.4a.94.94 0 0 1-.95-.55l-.9-1.5a3.025 3.025 0 0 1-.35-2.7 5.93 5.93 0 0 0 .05-2.65 4.21 4.21 0 0 1 .85-3.5c.3-.35.3-.5-.2-.6a25.03 25.03 0 0 1-5.9-2.05.05.05 0 0 1-.05-.05c-1.6-.6-1.9-.5-2.35 1.15-.4 1.4-.8 2.8-1.1 4.25-.35 1.6.05 3.1.55 4.6.2.6.8.55 1.25.7 1 .3 1.85.7 2.25 1.75.35.8.3.9-.55.9-.85 0-1.7-.05-2.6 0a3.32 3.32 0 0 1-2.1-.7c-2.4-1.6-3.1-4.05-3.3-6.7-.1-1.65-1-2.95-2.05-4.2-.2-.25-.4-.35-.7-.15a22.156 22.156 0 0 1-3.35 1.5 13.355 13.355 0 0 0-6.1 4.4 5.315 5.315 0 0 0-1.1 2.55c-.15.9.1 1.3 1 1.55s1.35.75 1.45 1.7c.05.4-.1.6-.5.6h-4.05a.824.824 0 0 1-.65-.4 4.28 4.28 0 0 1-.95-2.75 25.307 25.307 0 0 1 .45-5.15 3.152 3.152 0 0 1 1.7-2.4c2.95-1.4 4.5-4.05 5.9-6.8.3-.55.05-.65-.45-.6a8.236 8.236 0 0 0-3.85 1.6 35.317 35.317 0 0 0-4.15 3.55 8.335 8.335 0 0 1-5.15 2.45c-3.65.2-5.35-1.85-5.2-5.15a4.845 4.845 0 0 1 1.2-3.05 2.125 2.125 0 0 1 2.25-.75c.75.2.95.6.65 1.35-.15.3-.35.55-.5.85a3.752 3.752 0 0 0-.5 1c-.55 1.5.2 2.55 1.75 2.7 1.65.15 3-.55 4.25-1.55a22.466 22.466 0 0 0 4-4.15 10.396 10.396 0 0 1 7.2-4.05c1.15-.15 2.15-.65 3.25-.95 2.056-.627 4.199-.93 6.35-.9a6.5 6.5 0 0 0 2.9-.55c2.45-1 5-1 7.55-.5 2 .4 4 .9 5.95 1.4a8.288 8.288 0 0 0 3.5-.1 33.9 33.9 0 0 1 6.7-1 9.081 9.081 0 0 1 4.3.85c1 .45 1 .45.75 1.4Z" fill="#000"></path></g><defs><clipPath id="cat-pro_0"><path fill="#fff" d="M0 0h67v57H0z"></path></clipPath></defs></svg><svg fill="none" id="cat-slim" viewBox="0 0 67 57"><circle cx="35" cy="30" r="25" fill="#68B738"></circle><path d="M45.203 2h-.195c-.33.187-.593.474-.75.82a8.028 8.028 0 0 0-.664 1.757.84.84 0 0 1-.761.691 3.77 3.77 0 0 0-2.69 1.948c-.372.661-.69 1.35-.952 2.062-.73 1.897-1.29 3.856-1.98 5.768-.324.872-.339.872-1.316.872-1.168 0-1.085-.18-1.1 1.108 0 .407.123.613.555.593.133 0 .334-.067.385.108.052.175-.123.252-.226.355a4.626 4.626 0 0 1-2.227 1.258c-.977.263-1.975.47-2.926.789-2.443.82-4.7 1.964-6.46 3.902a14.436 14.436 0 0 0-2.437 4.041c-1.888 4.454-2.803 9.145-3.513 13.882a97.056 97.056 0 0 0-.75 6.7C17.102 49.759 17 50.877 17 52h17.141a1.126 1.126 0 0 0-.118-.66 2.577 2.577 0 0 0-1.97-1.582c-.36-.083-.401-.191-.18-.475.36-.482.637-1.022.818-1.597.838-2.48 1.162-5.067 1.568-7.63.23-1.956.83-3.85 1.77-5.582a11.126 11.126 0 0 1 2.874-3.283c.427-.325.443-.325.515.227.051.366.061.742.087 1.113a48.166 48.166 0 0 1-.092 7.31 31.866 31.866 0 0 0-.078 5.67A38.826 38.826 0 0 0 40.503 52h6.84a2.79 2.79 0 0 0-2.18-2.289 4.62 4.62 0 0 0-1.934.103c-.309.073-.438 0-.463-.335a29.113 29.113 0 0 1 .514-8.154 91.803 91.803 0 0 0 1.574-9.371 9.163 9.163 0 0 1 1.172-3.609c.612-1.092 1.147-2.226 1.749-3.324a3.031 3.031 0 0 0 .216-2.676c-.139-.366-.273-.737-.442-1.087-.515-1.005-1.029-2-1.502-3.016-.252-.515-.196-.577.365-.593.838 0 .838 0 .854-.845v-.34c0-.356-.134-.552-.515-.515h-.781c-.355 0-.458-.15-.37-.516a3.217 3.217 0 0 1 2.638-2.284 11.291 11.291 0 0 1 3.404.222.513.513 0 0 0 .643-.33c.206-.515.432-1.03.664-1.546a.517.517 0 0 0-.052-.588c-1.646-2.093-3.43-4.046-5.863-5.299a.767.767 0 0 1-.452-.577 10.123 10.123 0 0 0-.653-2.144A1.803 1.803 0 0 0 45.203 2Z" fill="#000"></path></svg><svg viewBox="0 0 24 24" id="cross"><path stroke="#000" stroke-width="1.5" d="m3.5 21.5 17-18m-17 0 17 18"></path></svg><svg fill="none" viewBox="0 0 32 32" id="cutlery"><path fill="#fff" fill-rule="evenodd" d="M22.62 1.08a1 1 0 0 1 1.09.21c.9.91 2.1 2.88 3.06 5.92A42.6 42.6 0 0 1 28.5 20a1 1 0 0 1-1 1H24v9a1 1 0 1 1-2 0V2a1 1 0 0 1 .62-.92ZM24 19h2.5a39.62 39.62 0 0 0-1.64-11.19 22.4 22.4 0 0 0-.86-2.3V19ZM10 1a1 1 0 0 1 1 1v28a1 1 0 1 1-2 0V2a1 1 0 0 1 1-1Z" clip-rule="evenodd"></path><path fill="#fff" fill-rule="evenodd" d="M5.5 1a1 1 0 0 1 1 1v5.5c0 .56.2 1.32.7 1.92.48.56 1.31 1.08 2.8 1.08a1 1 0 0 1 0 2 5.41 5.41 0 0 1-4.33-1.8A5.07 5.07 0 0 1 4.5 7.5V2a1 1 0 0 1 1-1Z" clip-rule="evenodd"></path><path fill="#fff" fill-rule="evenodd" d="M14.5 1a1 1 0 0 0-1 1v5.5c0 .56-.2 1.32-.7 1.92-.48.56-1.31 1.08-2.8 1.08a1 1 0 0 0 0 2c2.01 0 3.43-.73 4.33-1.8a5.07 5.07 0 0 0 1.17-3.2V2a1 1 0 0 0-1-1Z" clip-rule="evenodd"></path></svg><svg viewBox="0 0 27 34" id="htmlacademy"><path fill="#666" d="M13.64.02 13.5 0 0 1.4v24.61L13.5 34 27 26.01V1.41L13.64 0Zm11.6 25L13.5 31.96 1.77 25.02v-10.1l11.68 6.93.02 1.25-8.02-4.75v1.23l8.04 4.8.02 1.3-8.05-4.76v1.22l8.04 4.81 8.12-4.83V16.9l3.62-2.15v10.26Zm0-11.57L22 15.33l-1.48.88-7.06-4.19-.01 1.23 6.04 3.57-.06.03-.13.07-.86.5-4.98-2.95-.01 1.22 3.93 2.33-.93.61-.02.01-2.97-1.74-.01 1.23 1.94 1.13-1.98 1.19L1.8 13.58l11.63-6.96 11.8 6.83Zm0-1.22L13.43 5.3 1.77 12.22V2.99L13.5 1.76 25.23 3v9.24Z"></path></svg><svg fill="none" id="icon-gift" viewBox="0 0 78 80"><path d="M64.016 34.713H14.03c-1.754 0-3.182-1.418-3.182-3.16v-9.469c0-1.742 1.428-3.16 3.182-3.16h49.984c1.754 0 3.18 1.418 3.18 3.16v9.469c0 1.742-1.426 3.16-3.18 3.16ZM14.03 21.346a.751.751 0 0 0-.744.738v9.469c0 .407.334.738.744.738h49.984c.41 0 .743-.331.743-.738v-9.469a.75.75 0 0 0-.743-.738H14.03Z" fill="#fff"></path><path d="M57.045 67.149H20.999c-3.377 0-6.125-2.73-6.125-6.086V33.502c0-.669.546-1.212 1.219-1.212s1.219.543 1.219 1.212v27.56c0 2.021 1.654 3.665 3.687 3.665h36.046c2.032 0 3.686-1.644 3.686-3.664V33.502c0-.669.546-1.212 1.219-1.212.672 0 1.218.543 1.218 1.212v27.56c0 3.357-2.747 6.087-6.123 6.087Z" fill="#fff"></path><path d="M39.023 67.149a1.215 1.215 0 0 1-1.22-1.211V33.502c0-.669.547-1.212 1.22-1.212.672 0 1.218.543 1.218 1.212v32.435c0 .67-.545 1.212-1.218 1.212ZM23.811 21.341c-3.814-2.054-5.238-6.808-3.173-10.6 2.064-3.789 6.848-5.204 10.665-3.154 5.814 3.13 8.954 11.86 9.084 12.23l-2.3.804c-.029-.083-2.961-8.222-7.944-10.904-2.635-1.415-5.937-.438-7.36 2.177-1.426 2.618-.444 5.9 2.19 7.318l-1.162 2.13Z" fill="#fff"></path><path d="m54.231 21.341-1.16-2.13a5.376 5.376 0 0 0 2.622-3.207 5.327 5.327 0 0 0-.431-4.109 5.382 5.382 0 0 0-3.226-2.604 5.426 5.426 0 0 0-4.134.426c-4.982 2.682-7.915 10.82-7.944 10.903l-2.3-.803c.131-.37 3.27-9.101 9.084-12.23a7.859 7.859 0 0 1 5.99-.617 7.8 7.8 0 0 1 4.674 3.771 7.72 7.72 0 0 1 .623 5.953 7.788 7.788 0 0 1-3.798 4.647ZM61.95 50.931H16.093a1.215 1.215 0 0 1-1.219-1.21c0-.67.546-1.212 1.219-1.212H61.95c.672 0 1.218.543 1.218 1.211 0 .669-.545 1.211-1.218 1.211Z" fill="#fff"></path></svg><svg fill="none" id="icon_leaf" viewBox="0 0 676 163"><path d="M649 137.999h26v18h-14M653 155.999h-4v-14M661 156l-8 6v-6" stroke="#fff" stroke-width="2" stroke-miterlimit="10" stroke-linecap="round" stroke-linejoin="round"></path><path d="M29.7 2.767A1 1 0 0 0 28.728 2h-.006c-5.267.033-18.075.916-23.246 8.38-2.686 3.878-2.917 8.913-.687 14.965.017.047.052.079.075.122-.797 1.973-1.106 3.286-1.114 3.323a1.001 1.001 0 0 0 1.956.42c.021-.102 2.569-10.373 11.577-16.378a1 1 0 0 0 .277-1.387.998.998 0 0 0-1.387-.277c-5.108 3.405-8.254 8.008-10.104 11.656-1.324-4.578-.977-8.377 1.052-11.305 3.993-5.764 13.464-7.154 19.181-7.448-1.23 1.801-2.574 5.103-2.574 10.929 0 3.12-.885 5.522-2.629 7.14-2.796 2.591-7.338 2.834-10.66 2.584a1 1 0 1 0-.152 1.994 27.7 27.7 0 0 0 2.113.082c3.382 0 7.327-.663 10.058-3.194 2.17-2.011 3.27-4.906 3.27-8.605 0-9.099 3.43-11.096 3.447-11.105.416-.209.634-.677.525-1.129Z" fill="#fff"></path></svg><svg fill="none" viewBox="0 0 32 32" id="leaf"><path fill="#fff" d="M29.7 2.77a1 1 0 0 0-.97-.77c-5.28.03-18.08.92-23.25 8.38-2.69 3.88-2.92 8.91-.7 14.96l.08.13c-.8 1.97-1.1 3.28-1.11 3.32a1 1 0 0 0 1.96.42c.02-.1 2.57-10.37 11.57-16.38a1 1 0 1 0-1.1-1.66c-5.12 3.4-8.26 8-10.11 11.65-1.33-4.57-.98-8.37 1.05-11.3 4-5.76 13.46-7.15 19.18-7.45-1.23 1.8-2.57 5.1-2.57 10.93 0 3.12-.89 5.52-2.63 7.14-2.8 2.6-7.34 2.83-10.66 2.58a1 1 0 1 0-.15 2c.66.05 1.37.08 2.11.08 3.38 0 7.33-.66 10.06-3.2 2.17-2 3.27-4.9 3.27-8.6 0-9.1 3.43-11.1 3.45-11.1a1 1 0 0 0 .52-1.13Z"></path></svg><svg fill="none" viewBox="0 0 20 20" id="message"><path stroke="#000" stroke-linecap="round" stroke-linejoin="round" d="M1.5 8.5v8h17v-8m-17-5h17v2l-8.5 6-8.5-6v-2Z"></path></svg><svg fill="none" viewBox="0 0 20 20" id="phone"><path stroke="#000" stroke-linecap="round" stroke-linejoin="round" d="M10 10h8.5m0 0L16 7.5m2.5 2.5L16 12.5m-7.5-10v5h-3v5h3v5H6c-1.5 0-2.5-1-2.5-2.5V5c0-1.5 1-2.5 2.5-2.5h2.5Z"></path></svg><svg fill="none" viewBox="0 0 60 60" id="plus"><path stroke="#D3D3D3" stroke-width="2" d="M31 0v60m29-29H0" vector-effect="non-scaling-stroke"></path></svg><svg fill="none" viewBox="0 0 32 32" id="pot"><path fill="#fff" d="M13.88 2c-1.64 0-2.9 1.36-2.9 3.08s1.26 3.08 2.9 3.08c1.63 0 2.9-1.36 2.9-3.08S15.5 2 13.87 2Zm0 1.18c1 0 1.72.84 1.72 1.9 0 1-.8 1.9-1.72 1.9-1 0-1.73-.84-1.73-1.9 0-1 .78-1.9 1.72-1.9ZM3 26.74c0 1.18.4 2.18 1.36 3 1 .84 2.17.77 2.17.77h19.04c.77 0 1.8-.38 2.62-1.45.85-1 .8-2.36.8-2.36V9.5c0-.44-.12-.6-.75-.6-.64 0-.69.27-.69.59V26.7c-.02.3-.07 1.08-.74 1.72-.74.62-1.45.54-1.45.54s-18.13 0-19.03-.03c-.35-.06-.91-.19-1.45-.9-.51-.73-.41-1.63-.41-1.63V9.18c0-.46-.24-.64-.73-.64S3 8.72 3 9.12v17.62Zm16.31-16.31c-1.08.23-2.17.38-4.26 2.35-2.08 2-3.62 1.9-5.16 1.82-1.54-.1-3.17-1.54-3.45-1.9-.33-.36-.9-.12-1.08.11-.16.24-.16.64.1 1 1.27 1.18 2.45 2.08 4.72 2.26a7.5 7.5 0 0 0 5.89-2.26c1.45-1.45 2.17-1.72 3.26-1.9a6.3 6.3 0 0 1 5.08 1.26c1 1.1 1.26.78 1.54.48.54-.72-.23-1.27-1.1-1.9a7.24 7.24 0 0 0-5.52-1.28l-.02-.04Zm-9.06 7.16c-1.18 0-2.08 1-2.08 2.26 0 1.27.9 2.27 2.08 2.27 1.18 0 2.08-1 2.08-2.27s-.9-2.26-2.08-2.26Zm11.78.78c-1.54 0-2.8 1.36-2.8 2.99 0 1.63 1.26 2.99 2.8 2.99 1.54 0 2.81-1.36 2.81-3 0-1.62-1.27-2.98-2.8-2.98Zm0 1.45c.8 0 1.45.7 1.45 1.54a1.5 1.5 0 0 1-1.45 1.54c-.8 0-1.45-.7-1.45-1.54 0-.86.65-1.54 1.45-1.54Z"></path></svg><svg fill="none" viewBox="0 0 28 22" id="tg"><path fill="#666" fill-rule="evenodd" d="M23.46 3.15c.18.15.27.38.23.61l-2.63 15.76a.66.66 0 0 1-1.01.44l-7.88-5.25a.66.66 0 0 1-.15-.96l2.61-3.26-4.36 2.9a.66.66 0 0 1-.65.05L4.36 10.8a.66.66 0 0 1 .08-1.2l18.38-6.57a.66.66 0 0 1 .64.11ZM6.33 10.32l3.53 1.77 7.56-5.04a.66.66 0 0 1 .88.96l-4.8 6 6.43 4.3 2.28-13.66-15.88 5.67Z" clip-rule="evenodd"></path></svg><svg viewBox="0 0 30 30" id="tick-checkbox"><path fill="#68B738" d="m13 19.72-5.7-6.45-1.05 1.19L13 22.09 24.25 9.37 23.2 8.09 13 19.72Z"></path></svg><svg viewBox="0 0 30 30" id="tick-radio"><circle cx="15" cy="15" r="6.5" fill="#68B738"></circle></svg><svg fill="none" viewBox="0 0 28 22" id="vk"><path fill="#666" d="M1 5.34c0-.86.52-1.32 1.55-1.38l3.97.02c.26 0 .44.13.53.38.4 1.26.86 2.34 1.37 3.25.5.92 1.17 1.97 1.99 3.16.07.15.18.23.34.23.13 0 .22-.06.3-.18l.07-.28.03-4.35c0-.3-.07-.5-.23-.6-.15-.1-.43-.18-.83-.23-.32-.05-.48-.23-.48-.55 0-.07 0-.12.02-.15.38-1.09 1.44-1.63 3.2-1.63l1.5-.03c.67 0 1.23.16 1.67.48.44.32.67.82.67 1.5v5.72c.12.08.24.12.34.12.27 0 .5-.15.7-.45 1.95-2.58 3-4.31 3.17-5.18 0-.02.01-.06.05-.13.12-.25.33-.47.61-.65.29-.19.53-.31.75-.38a.55.55 0 0 1 .24-.05h4.13l.26.03c.36 0 .63.16.83.47.07.1.12.21.15.33a2.4 2.4 0 0 1 .06.55v.18a6.11 6.11 0 0 1-.94 2.2c-.5.78-1.15 1.62-1.93 2.53-.79.9-1.27 1.5-1.47 1.78-.16.2-.24.39-.24.56 0 .13.07.28.21.45l3.9 4.63c.2.26.31.56.31.88 0 .38-.16.7-.48.95-.32.25-.7.4-1.14.43l-.46.02h-4.04c-.02 0-.06 0-.11.02a.86.86 0 0 1-.1.01c-.4 0-.76-.16-1.1-.48-.12-.13-.96-1.12-2.5-2.97a1.39 1.39 0 0 0-.38-.32 38.47 38.47 0 0 0-.53 2.24l-.08.42a1.4 1.4 0 0 1-1.12 1.06l-.37.02h-2.61c-1.48 0-2.95-.63-4.41-1.9a19.3 19.3 0 0 1-3.96-4.95 47.51 47.51 0 0 1-3.28-7.05A1.92 1.92 0 0 1 1 5.34Zm16.01 6.51c-.37 0-.7-.1-1.01-.29a.9.9 0 0 1-.45-.79V5c0-.34-.1-.58-.27-.72-.18-.14-.49-.21-.93-.21l-1.52.05c-.76 0-1.34.12-1.73.37.78.36 1.17.93 1.17 1.71v4.43a1.5 1.5 0 0 1-.53 1.04c-.32.28-.68.42-1.07.42-.53 0-.94-.24-1.22-.73a26.16 26.16 0 0 1-3.1-5.63l-.23-.66-3.55-.02c-.23 0-.36.01-.38.03-.03.03-.04.1-.04.22 0 .15.01.3.05.48l.56 1.4c1.49 3.64 3.11 6.51 4.86 8.6 1.75 2.1 3.47 3.15 5.16 3.15h2.66c.1 0 .19-.03.24-.09.05-.06.1-.17.13-.34l.06-.25.5-2.21c.15-.3.27-.5.38-.6.2-.2.42-.28.69-.28.43 0 .86.24 1.3.73l2.27 2.71c.14.22.3.33.45.33h4.4c.53 0 .8-.13.8-.38a.47.47 0 0 0-.08-.25l-3.87-4.55c-.3-.35-.45-.73-.45-1.13 0-.4.14-.8.43-1.16.23-.34.68-.9 1.34-1.67.67-.78 1.25-1.51 1.75-2.19.5-.68.82-1.3.98-1.85l.08-.33a.37.37 0 0 1-.02-.16c0-.07-.01-.14-.03-.19h-4.18c-.27.1-.48.25-.64.45L21.8 6c-.45 1.16-1.6 2.94-3.5 5.36-.36.33-.8.5-1.3.5Z"></path></svg><svg fill="none" viewBox="0 0 28 22" id="yt"><path fill="#666" d="m17.85 10.8-5.24-3.5a.65.65 0 0 0-1.01.55v6.98a.65.65 0 0 0 1.01.54l5.24-3.49a.65.65 0 0 0 0-1.09Zm-4.94 2.8V9.08l3.4 2.27-3.4 2.27Zm12.48-8.56a2.4 2.4 0 0 0-1.45-1.63C20.22 1.98 14.25 2 14 2s-6.22-.02-9.94 1.4a2.4 2.4 0 0 0-1.45 1.64 25.32 25.32 0 0 0-.61 6.3c0 3.26.33 5.22.61 6.3a2.4 2.4 0 0 0 1.45 1.63c3.72 1.43 9.69 1.4 9.94 1.4h.08c.75 0 6.31-.04 9.86-1.4a2.4 2.4 0 0 0 1.45-1.64c.28-1.07.61-3.03.61-6.3 0-3.25-.33-5.22-.61-6.29Zm-1.27 12.27a1.1 1.1 0 0 1-.65.74c-3.5 1.34-9.4 1.32-9.47 1.32-.07 0-5.98.02-9.47-1.32a1.09 1.09 0 0 1-.65-.74c-.27-1-.57-2.85-.57-5.97 0-3.12.3-4.97.57-5.97a1.1 1.1 0 0 1 .65-.74C8.03 3.29 13.93 3.3 14 3.3c.07 0 5.98-.02 9.47 1.32a1.1 1.1 0 0 1 .65.74c.27 1 .57 2.85.57 5.97 0 3.12-.3 4.96-.57 5.97Z"></path></svg></svg>