<svg xmlns="http://www.w3.org/2000/svg">
	<style>:root svg:not(:target) { display: none }</style>
	<svg id="logo-pic-mobile" viewBox="0 0 40 40">
		<path fill="#FDC305" d="M9.07 21.72v-2.26c6.68-.92 13.42-1.36 20.17-1.33 0 .6 0 1.21-.06 1.82a25.52 25.52 0 0 1 6-1.82 16.67 16.67 0 0 0-31.99 3.26l5.88.33ZM30.24 25.23c-1.16 1.28-1.39 1.2-1.39 3.45v9.18A16.64 16.64 0 0 0 36.32 24a17.3 17.3 0 0 0-.32-3.1c-2.07 1.23-4 2.68-5.76 4.33ZM9.36 26.72s-3.79-1.44-5.19-1.83A8.54 8.54 0 0 0 3 24.61a16.65 16.65 0 0 0 8.68 14L9.36 26.72Z"/><path fill="#F06351" d="M29.29 18.12a89.8 89.8 0 0 0-1.4-16.47S27.75.36 27 1.41c-.59 1.25-1 2.58-1.2 3.94a70.34 70.34 0 0 0-12.77.34C12.24 3 10.85 1.75 10.18 2c-.67.25-.72 3.31-.72 3.31l-.33 14.1c6.68-.9 13.42-1.34 20.16-1.29Z"/><path fill="#000" d="M15.41 15c0-.09 1 .68 1.41.92.41.24.61.42.61.59 0 .17-.27.34-.63.34s-.91-.12-1-.27h1.23A8.34 8.34 0 0 1 15.41 15ZM22.89 15.11l-1.09 1.33c0 .06-.17.35.18.3.41-.06.82-.16 1.22-.29.11 0 .07-.19-.11-.17-.18.02-.69.05-1 .11l.84-1.26s.07-.13-.04-.02ZM19.75 21.2c.46-.2.85-.56 1.09-1 .28-.65 0-.91-.44-1-.6-.11-1.22.01-1.74.34-.39.36-.34.72-.05 1 .35.27.73.49 1.14.66Z"/><path fill="#F06351" d="M19.35 22.45c-.11.23-.27.43-.46.6-.28.23-.63.36-1 .38a2.15 2.15 0 0 1-1.47-.43 2.3 2.3 0 0 1-.53-.44c-.1-.11-.22-.2-.36-.26 0 0 .75 4.1 2.57 4.75 1.82.65 2.14-.75 2.2-1.13a5.61 5.61 0 0 0-.82-3.23c-.02-.31-.03-.11-.13-.24Z"/><path fill="#000" d="M17.71 23.59a3.44 3.44 0 0 1-2.36-1.47.14.14 0 0 1 .03-.15.14.14 0 0 1 .2 0c.5.7 1.26 1.16 2.11 1.3a2.1 2.1 0 0 0 1.63-1l.14-.19.1.21s.37.76 1 .8c.63.04 1.05-.41 1.61-1.28a.14.14 0 0 1 .2 0 .15.15 0 0 1 .05.2c-.64 1-1.27 1.44-1.88 1.4a1.55 1.55 0 0 1-1.12-.76 2.26 2.26 0 0 1-1.71.94Z"/><path fill="#F06351" d="M29.24 19.92a58.63 58.63 0 0 0-5.07 5.19A31.63 31.63 0 0 1 18.88 30c-.22-.53-1.62-1.51-1.62-1.51s-3.13-2.14-5.18-3.82a34.13 34.13 0 0 1-3.13-3l-2-.11c2.89 4.2 7.12 7.3 12 8.8.86-.14 3.27-1.86 5.07-3.26a58.13 58.13 0 0 0 5.94-5.89c.5-.59.89-1.27 1.14-2-1.1.39-1.86.71-1.86.71Z"/>
	</svg>
	<svg id="logo-pic-tablet" viewBox="0 0 60 60">
		<path fill="#FDC305" d="M51.32 23.45a22.11 22.11 0 0 0-17.4-13.4 21.9 21.9 0 0 0-20.29 8.34A22.19 22.19 0 0 0 27.8 53.86c-.5-1.8-1-3.8-1.45-5.91 1.3.84 2.66 1.58 4.09 2.2 0 0 .1 1.86.24 3.95 1.53.02 3.07-.11 4.58-.4a1.86 1.86 0 0 1 0-.67c.25-1.61.94-4.52 1.07-6.4 1-.93 1.83-2.01 2.5-3.2l-.06.38c-.47 3.68-1.46 7.6-2.06 8.7-.2.36-.43.7-.71 1a21.99 21.99 0 0 0 14.57-11.47 22.24 22.24 0 0 0 .75-18.59Zm-1.26 3.28c-.38.37-1.16.62-1.3-.5-.12-1.13-.16-1.91-.16-1.91s-1.65-2.97-2.27-3c-.62-.04-5.01 3-6.17 4.32-1 1.11-1.2 1.04-1.2 3 0 1.47.18 7.06.08 11.32l-7 1.88c-2.2.63-4.44 1.13-6.7 1.48l-.87-5.03h-.12l-2.2-11.38s-3.28-1.25-4.48-1.58a3.22 3.22 0 0 0-3.44.54 4.38 4.38 0 0 0-1.49 3.33c.18.4.32.82.41 1.25.05.42-1.03.37-1.71.37-.7 0-.8-1.24-.25-2.7.42-1.12.94-2.2 1.56-3.23.47-.92 1.07-1.76 1.78-2.5 0 0 .12-.3 1.07-.2.96.08 6.26.36 6.26.36l.04-1.96c5.77-.8 11.58-1.18 17.4-1.15v1.58c2.2-1.01 4.57-1.6 7-1.73a.78.78 0 0 1 .65.34c.3.37 2.08 2.59 2.28 2.9.58.84 1.1 1.7 1.58 2.6a5.4 5.4 0 0 1-.75 1.59Z"/><path fill="#F06351" d="m48.34 21.12.85 1.14c.57.85 1.1 1.73 1.56 2.64-.16.56-.41 1.09-.73 1.57-.38.38-1.15.63-1.28-.51-.13-1.15-.18-1.9-.18-1.9S46.92 21.04 46.3 21c-.6-.03-4.96 3.06-6.1 4.4-1 1.14-1.2 1.06-1.2 3.06 0 1.32.14 5.85.11 9.88 1.54.18 3.8.62 4.49 1.66 0 0-.25-6.32 6.64-3.01 0 0 .24-8.62 9.76-6.41a37.43 37.43 0 0 0-11.66-9.46ZM39.57 19.5c.03-4.73-.37-9.46-1.21-14.12 0 0-.13-1.11-.75-.2a12.11 12.11 0 0 0-1.03 3.4 61.55 61.55 0 0 0-11.05.3c-.7-2.35-1.91-3.42-2.49-3.14-.57.29-.64 2.8-.64 2.8l-.29 12.1c5.79-.79 11.62-1.17 17.46-1.14Z"/><path fill="#E55645" d="M39.07 43.23c.1-.92.17-2.13.2-3.47l-7.02 1.85c-2.2.65-4.45 1.15-6.72 1.52l.96 4.27c0 .1 0 .19.06.28 1.3.84 2.67 1.57 4.1 2.18a36.6 36.6 0 0 0 5.93-3.53v.05c.98-.92 1.82-1.98 2.49-3.15Z"/><path fill="#000" d="M27.57 16.83c-.05-.09.86.58 1.21.78.35.2.53.36.53.5 0 .15-.23.3-.54.3-.3 0-.8-.1-.86-.23-.07-.12.52 0 .81 0h.25c-.53-.38-1-.84-1.4-1.35ZM34.03 16.92s-.87 1.1-.94 1.14c-.08.06-.15.3.16.25.36-.05.7-.13 1.05-.24.1-.05.06-.17-.1-.15-.17.02-.59.04-.86.1l.73-1.1s.03-.1-.04 0ZM31.32 22.14c.4-.17.73-.47.94-.85.24-.57 0-.78-.38-.86-.52-.1-1.06.01-1.5.3-.34.3-.3.62 0 .85.28.22.6.41.94.56Z"/><path fill="#F06351" d="M31.01 23.22a1.5 1.5 0 0 1-1.26.84c-.47.04-.94-.1-1.32-.38-.18-.1-.33-.23-.46-.39a.86.86 0 0 0-.3-.21c-.01 0 .64 3.51 2.2 4.08 1.57.56 1.86-.65 1.9-.98.06-.97-.19-1.94-.7-2.77 0-.25-.02-.08-.06-.2Z"/><path fill="#000" d="M29.55 24.2a3.03 3.03 0 0 1-2.03-1.23.13.13 0 0 1 0-.17.12.12 0 0 1 .17 0 2.77 2.77 0 0 0 1.82 1.12 1.83 1.83 0 0 0 1.42-.86l.12-.16.08.19s.33.65.86.68c.54.04.92-.36 1.4-1.1a.12.12 0 0 1 .18-.03.12.12 0 0 1 .03.17c-.57.83-1.11 1.24-1.62 1.2a1.34 1.34 0 0 1-.97-.62 1.94 1.94 0 0 1-1.46.8Z"/><path fill="#FDC305" d="M31.24 35.7a3.22 3.22 0 0 0 3.23-3.21c0-1.77-1.45-3.2-3.23-3.2a3.22 3.22 0 0 0-3.23 3.2c0 1.77 1.44 3.2 3.23 3.2Z"/><path fill="#111" d="M35.52 29.88 32.82 31l1-4.81-6.47 8.34 2.7-1.12-1 4.82 6.47-8.35Zm-6.37 3.27 3.58-4.62-.7 3.42 1.73-.7-3.61 4.63.7-3.42-1.7.7ZM27.94 31.9c.54 0 .97-.43.97-.96a.96.96 0 0 0-.97-.96.96.96 0 0 0-.96.96c0 .53.43.96.96.96ZM33.56 35.37a.68.68 0 1 0 0-1.35c-.37 0-.68.3-.68.67 0 .37.3.68.68.68ZM34.39 33.51a.3.3 0 0 0 .3-.3.3.3 0 0 0-.3-.3.3.3 0 0 0-.3.3c0 .17.13.3.3.3Z"/><path fill="#F06351" d="M39.52 21.05a49.3 49.3 0 0 0-4.38 4.45 27.38 27.38 0 0 1-4.58 4.18c-.19-.45-1.4-1.3-1.4-1.3s-2.7-1.83-4.48-3.27c-.96-.8-1.86-1.65-2.7-2.57l-1.73-.1A19.48 19.48 0 0 0 30.6 30c.74-.12 2.82-1.6 4.38-2.8a49.47 49.47 0 0 0 5.17-5.05c.43-.5.76-1.09.98-1.71-.98.32-1.6.6-1.6.6ZM22.34 26.9s-3.29-1.24-4.5-1.57a3.26 3.26 0 0 0-3.44.54 4.33 4.33 0 0 0-1.49 3.29c.18.4.32.8.42 1.23.04.41-1.04.37-1.73.37s-.79-1.23-.25-2.67c.43-1.11.95-2.18 1.57-3.2C8.22 27.32 0 32.92 0 32.92c2.35-.14 4.71-.07 7.06.2 4.52.46 4.3 4 4.3 4 1.6-.44 3.21-.75 4.85-.95 1.83-.12 1.96 1.81 1.96 1.81l.45 3.3c.7-.74 1.46-1.42 2.29-2.02a5.25 5.25 0 0 1 3.77-1.1l-2.34-11.27Z"/>
	</svg>
	<svg id="logo-pic-desctop" viewBox="0 0 70 70">
		<svg xmlns="http://www.w3.org/2000/svg" fill="none" viewBox="0 0 70 70"><path fill="#FDC305" d="M59.88 29.21a25.8 25.8 0 0 0-8.05-10.55 25.5 25.5 0 0 0-25.29-3.4 25.64 25.64 0 0 0-10.51 8.04 25.95 25.95 0 0 0-3.55 25.48 25.82 25.82 0 0 0 7.9 10.67 25.5 25.5 0 0 0 12.13 5.27c-.58-2.11-1.17-4.44-1.69-6.91 1.51.99 3.1 1.85 4.76 2.57 0 0 .12 2.18.28 4.61 1.79.03 3.58-.13 5.33-.47a2.17 2.17 0 0 1 0-.77c.3-1.89 1.1-5.29 1.25-7.48a15.33 15.33 0 0 0 2.9-3.74l-.06.45c-.55 4.3-1.7 8.88-2.4 10.15-.23.42-.5.81-.83 1.16a25.55 25.55 0 0 0 16.96-13.38 26.04 26.04 0 0 0 .87-21.7Zm-1.47 3.82c-.44.44-1.35.73-1.5-.58-.15-1.31-.19-2.23-.19-2.23s-1.93-3.46-2.65-3.5c-.72-.04-5.83 3.5-7.18 5.04-1.17 1.3-1.4 1.21-1.4 3.5 0 1.73.22 8.24.1 13.23l-8.15 2.19a63.54 63.54 0 0 1-7.8 1.73l-1-5.88h-.14l-2.57-13.29s-3.8-1.45-5.2-1.84a3.73 3.73 0 0 0-4.01.63 5.11 5.11 0 0 0-1.73 3.89c.21.47.37.96.48 1.46.05.48-1.2.43-2 .43s-.92-1.45-.29-3.15A23.1 23.1 0 0 1 15 30.88a11.97 11.97 0 0 1 2.07-2.91s.14-.34 1.25-.24c1.11.1 7.28.43 7.28.43l.05-2.29c6.7-.93 13.47-1.38 20.24-1.35v1.85a22.36 22.36 0 0 1 8.14-2.02.9.9 0 0 1 .77.4c.34.42 2.41 3.02 2.65 3.4a28.3 28.3 0 0 1 1.83 3.02 6.32 6.32 0 0 1-.87 1.85v.01Z"/><path fill="#F06351" d="m56.12 27.14 1.01 1.25c.68.94 1.3 1.91 1.85 2.92-.19.62-.48 1.2-.87 1.73-.44.42-1.37.7-1.52-.56-.15-1.27-.21-2.1-.21-2.1s-1.96-3.34-2.69-3.38c-.72-.04-5.9 3.38-7.27 4.87-1.19 1.25-1.42 1.16-1.42 3.37 0 1.46.17 6.47.13 10.93 1.84.2 4.53.68 5.34 1.83 0 0-.3-6.99 7.92-3.33 0 0 .28-9.52 11.61-7.08a44.1 44.1 0 0 0-13.88-10.45ZM45.93 24.52a92.02 92.02 0 0 0-1.4-16.68s-.15-1.3-.87-.24c-.6 1.28-1 2.64-1.2 4.04a70.27 70.27 0 0 0-12.82.34c-.82-2.77-2.22-4.03-2.89-3.7-.67.33-.75 3.3-.75 3.3l-.33 14.3c6.71-.94 13.49-1.4 20.26-1.36Z"/><path fill="#E55645" d="M45.35 52.53c.13-1.08.2-2.51.24-4.1l-8.15 2.2a63.53 63.53 0 0 1-7.8 1.78l1.11 5.04c0 .12 0 .23.07.34 1.51.99 3.1 1.85 4.76 2.57a42.35 42.35 0 0 0 6.88-4.17v.06a15.33 15.33 0 0 0 2.9-3.72Z"/><path fill="#000" d="M32 21.36c-.05-.1 1 .69 1.41.93.41.24.61.42.61.6 0 .17-.26.34-.62.34s-.92-.12-1-.26c-.08-.15.6 0 .94 0h.3c-.62-.46-1.17-1-1.64-1.6ZM39.5 21.47s-1 1.3-1.09 1.35c-.09.07-.17.35.2.3.4-.07.81-.16 1.21-.29.11-.06.07-.2-.12-.18-.19.02-.68.05-1 .11l.85-1.28s.03-.12-.05 0ZM36.36 27.64c.47-.21.85-.56 1.1-1.01.27-.67 0-.92-.45-1.01-.6-.11-1.23.01-1.75.34-.39.37-.34.74 0 1.01s.7.5 1.1.67Z"/><path fill="#F06351" d="M36 28.9c-.11.24-.27.44-.46.61-.28.23-.63.37-1 .39-.55.05-1.1-.1-1.54-.45a2 2 0 0 1-.53-.45 1 1 0 0 0-.36-.25s.75 4.14 2.57 4.8c1.82.67 2.16-.76 2.21-1.14a5.72 5.72 0 0 0-.82-3.27c0-.3-.02-.1-.07-.23Z"/><path fill="#000" d="M34.3 30.06a3.48 3.48 0 0 1-2.35-1.45.15.15 0 0 1 0-.2.14.14 0 0 1 .2 0 3.23 3.23 0 0 0 2.11 1.32 2.1 2.1 0 0 0 1.64-1l.14-.2.1.23s.38.76 1 .8c.62.04 1.06-.42 1.63-1.3a.14.14 0 0 1 .2-.04.15.15 0 0 1 .04.2c-.67 1-1.3 1.47-1.89 1.43A1.54 1.54 0 0 1 36 29.1a2.27 2.27 0 0 1-1.7.95Z"/><path fill="#FDC305" d="M36.26 43.63c2.07 0 3.75-1.69 3.75-3.78a3.77 3.77 0 0 0-3.75-3.78 3.77 3.77 0 0 0-3.75 3.78 3.77 3.77 0 0 0 3.75 3.78Z"/><path fill="#111" d="M41.23 36.78 38.1 38.1l1.15-5.68-7.5 9.84 3.13-1.32-1.15 5.7 7.5-9.86Zm-7.39 3.86L38 35.18l-.8 4.04 2-.83-4.2 5.47.81-4.04-1.97.82ZM32.44 39.16c.62 0 1.12-.51 1.12-1.13 0-.63-.5-1.13-1.12-1.13-.62 0-1.12.5-1.12 1.13 0 .62.5 1.13 1.12 1.13ZM38.96 43.25a.8.8 0 0 0 .8-.8.8.8 0 0 0-.8-.8.8.8 0 0 0-.79.8c0 .44.36.8.8.8ZM39.92 41.06a.35.35 0 0 0 0-.7c-.2 0-.35.15-.35.35 0 .2.16.35.35.35Z"/><path fill="#F06351" d="M45.88 26.34c-1.8 1.65-3.5 3.4-5.09 5.26a31.99 31.99 0 0 1-5.3 4.94c-.23-.53-1.64-1.53-1.64-1.53s-3.14-2.17-5.2-3.87a32.02 32.02 0 0 1-3.14-3.03l-2-.11a22.65 22.65 0 0 0 12 8.92c.86-.14 3.28-1.89 5.1-3.31a57.9 57.9 0 0 0 6-5.96c.49-.6.88-1.28 1.13-2.02-1.14.38-1.86.71-1.86.71Z"/><path fill="#FDC305" d="m65.22 8.53-8.46 9.52-1.22-2L63.7 5l1.53 3.53ZM62.65 22.41l5.54-4.14-.78-3.78-5.4 4.85.64 3.07ZM59.92 54.8l6.13 3.2 3.01-2.35-6.69-2.78-2.45 1.93ZM1.95 11.02l3.07-3.39 9.29 9.08-1.22 2.3-11.14-7.99ZM7.38 21.42l-4.7-3.16-2.4 3.9 5.15 2.43 1.95-3.17ZM13.91 58 9.36 61.4l2.8 3.61 4.02-4.06-2.27-2.93Z"/><path fill="#F06351" d="M25.93 33.24s-3.8-1.45-5.2-1.84a3.73 3.73 0 0 0-4 .63 5.11 5.11 0 0 0-1.74 3.89c.21.47.37.96.48 1.46.05.48-1.2.43-2 .43s-.92-1.45-.29-3.15A23.1 23.1 0 0 1 15 30.88c-5.45 2.87-15 9.49-15 9.49 2.73-.17 5.47-.09 8.19.24 5.25.53 5 4.7 5 4.7 1.85-.5 3.73-.88 5.63-1.11 2.12-.14 2.27 2.14 2.27 2.14l.53 3.9c.8-.89 1.7-1.68 2.65-2.39 1.24-1 2.8-1.47 4.38-1.31l-2.72-13.3Z"/></svg>
	</svg>
	<symbol viewBox="0 0 101 18" id="logo-text">
		<path d="M2.26 16.54A6.86 6.86 0 0 1 1 12.24v-6.4c-.1-1.54.3-3.08 1.19-4.38C3.05.46 4.39 0 6.37 0c1.98 0 3.24.46 4.03 1.3a5.42 5.42 0 0 1 1.19 3.78v1.54H7.72V4.85a3.7 3.7 0 0 0-.24-1.54 1.16 1.16 0 0 0-1.1-.62c-.56 0-.95.16-1.11.54a4.85 4.85 0 0 0-.24 1.7v8.22c-.04.56.07 1.12.32 1.62.15.38.55.54 1.1.54.56 0 .87-.16 1.03-.54.18-.52.26-1.07.24-1.62v-1.84h3.87v1.54a5.77 5.77 0 0 1-1.19 3.84c-.79.93-2.13 1.39-4.03 1.39-1.9-.08-3.32-.54-4.1-1.54ZM16.25.23h4.5l3.33 17.54h-3.64l-.63-3.7h-2.6l-.64 3.7h-3.72L16.25.23Zm3.24 11.54-.95-6.85-.94 6.85h1.9ZM26.84 3.15h-2.68V.23h9.4v2.85h-2.69v14.69h-4.03V3.15ZM40.75.23h6.96v1.85h-4.5v5.77h3.63v1.77H43.2v6.46h4.5v1.77h-7.03V.23h.08ZM49.76.23h1.74l5.14 11.62V.23h2.05v17.54h-1.58l-5.21-12v12h-2.14V.23ZM61.06.23h6.96v1.85h-4.5v5.77h3.63v1.77H63.5v6.46h4.5v1.77h-6.95V.23ZM70.07.23h3.64c1.43-.1 2.85.28 4.03 1.08C78.6 2 79 3.23 79 4.85c0 2.23-.7 3.61-2.21 4.07l2.53 8.77h-2.45L74.5 9.46h-1.98v8.23H70V.23h.08Zm3.48 7.54c.81.06 1.63-.15 2.3-.62.47-.38.7-1.15.7-2.3a4.85 4.85 0 0 0-.23-1.7c-.18-.39-.49-.71-.87-.92a3.69 3.69 0 0 0-1.74-.3h-1.1v5.76h.94v.08ZM82.16 16.46a7.61 7.61 0 0 1-1.1-4.46V6.15c-.02-1.11.11-2.22.4-3.3.26-.81.78-1.51 1.5-2 .88-.51 1.9-.75 2.92-.7 1.66 0 2.84.39 3.55 1.23a5.77 5.77 0 0 1 1.11 3.85v.62h-2.37V5.3c0-.65-.05-1.29-.16-1.93-.06-.4-.3-.76-.63-1a2.5 2.5 0 0 0-1.5-.38 2.42 2.42 0 0 0-1.58.46 1.75 1.75 0 0 0-.63 1.23c-.1.69-.16 1.38-.16 2.08v6.54c-.06 1 .1 2 .47 2.92.32.62.95.85 1.9.85a1.96 1.96 0 0 0 1.9-.93c.41-.97.6-2.02.55-3.07v-1.23h-2.3V9.08h4.59v8.69h-1.58l-.24-2c-.2.67-.64 1.25-1.22 1.66-.6.4-1.3.6-2.02.57a4.05 4.05 0 0 1-3.4-1.54ZM95.68 11.62 91.8.3h2.37l2.76 8.46L99.63.3H102l-3.87 11.3v6.16h-2.37v-6.15h-.08Z"/>
	</symbol>
</svg>
