<svg xmlns="http://www.w3.org/2000/svg" fill="none" viewBox="0 0 60 60"><path fill="#FDC305" d="M51.32 23.45a22.11 22.11 0 0 0-17.4-13.4 21.9 21.9 0 0 0-20.29 8.34A22.19 22.19 0 0 0 27.8 53.86c-.5-1.8-1-3.8-1.45-5.91 1.3.84 2.66 1.58 4.09 2.2 0 0 .1 1.86.24 3.95 1.53.02 3.07-.11 4.58-.4a1.86 1.86 0 0 1 0-.67c.25-1.61.94-4.52 1.07-6.4 1-.93 1.83-2.01 2.5-3.2l-.06.38c-.47 3.68-1.46 7.6-2.06 8.7-.2.36-.43.7-.71 1a21.99 21.99 0 0 0 14.57-11.47 22.24 22.24 0 0 0 .75-18.59Zm-1.26 3.28c-.38.37-1.16.62-1.3-.5-.12-1.13-.16-1.91-.16-1.91s-1.65-2.97-2.27-3c-.62-.04-5.01 3-6.17 4.32-1 1.11-1.2 1.04-1.2 3 0 1.47.18 7.06.08 11.32l-7 1.88c-2.2.63-4.44 1.13-6.7 1.48l-.87-5.03h-.12l-2.2-11.38s-3.28-1.25-4.48-1.58a3.22 3.22 0 0 0-3.44.54 4.38 4.38 0 0 0-1.49 3.33c.18.4.32.82.41 1.25.05.42-1.03.37-1.71.37-.7 0-.8-1.24-.25-2.7.42-1.12.94-2.2 1.56-3.23.47-.92 1.07-1.76 1.78-2.5 0 0 .12-.3 1.07-.2.96.08 6.26.36 6.26.36l.04-1.96c5.77-.8 11.58-1.18 17.4-1.15v1.58c2.2-1.01 4.57-1.6 7-1.73a.78.78 0 0 1 .65.34c.3.37 2.08 2.59 2.28 2.9.58.84 1.1 1.7 1.58 2.6a5.4 5.4 0 0 1-.75 1.59Z"/><path fill="#F06351" d="m48.34 21.12.85 1.14c.57.85 1.1 1.73 1.56 2.64-.16.56-.41 1.09-.73 1.57-.38.38-1.15.63-1.28-.51-.13-1.15-.18-1.9-.18-1.9S46.92 21.04 46.3 21c-.6-.03-4.96 3.06-6.1 4.4-1 1.14-1.2 1.06-1.2 3.06 0 1.32.14 5.85.11 9.88 1.54.18 3.8.62 4.49 1.66 0 0-.25-6.32 6.64-3.01 0 0 .24-8.62 9.76-6.41a37.43 37.43 0 0 0-11.66-9.46ZM39.57 19.5c.03-4.73-.37-9.46-1.21-14.12 0 0-.13-1.11-.75-.2a12.11 12.11 0 0 0-1.03 3.4 61.55 61.55 0 0 0-11.05.3c-.7-2.35-1.91-3.42-2.49-3.14-.57.29-.64 2.8-.64 2.8l-.29 12.1c5.79-.79 11.62-1.17 17.46-1.14Z"/><path fill="#E55645" d="M39.07 43.23c.1-.92.17-2.13.2-3.47l-7.02 1.85c-2.2.65-4.45 1.15-6.72 1.52l.96 4.27c0 .1 0 .19.06.28 1.3.84 2.67 1.57 4.1 2.18a36.6 36.6 0 0 0 5.93-3.53v.05c.98-.92 1.82-1.98 2.49-3.15Z"/><path fill="#000" d="M27.57 16.83c-.05-.09.86.58 1.21.78.35.2.53.36.53.5 0 .15-.23.3-.54.3-.3 0-.8-.1-.86-.23-.07-.12.52 0 .81 0h.25c-.53-.38-1-.84-1.4-1.35ZM34.03 16.92s-.87 1.1-.94 1.14c-.08.06-.15.3.16.25.36-.05.7-.13 1.05-.24.1-.05.06-.17-.1-.15-.17.02-.59.04-.86.1l.73-1.1s.03-.1-.04 0ZM31.32 22.14c.4-.17.73-.47.94-.85.24-.57 0-.78-.38-.86-.52-.1-1.06.01-1.5.3-.34.3-.3.62 0 .85.28.22.6.41.94.56Z"/><path fill="#F06351" d="M31.01 23.22a1.5 1.5 0 0 1-1.26.84c-.47.04-.94-.1-1.32-.38-.18-.1-.33-.23-.46-.39a.86.86 0 0 0-.3-.21c-.01 0 .64 3.51 2.2 4.08 1.57.56 1.86-.65 1.9-.98.06-.97-.19-1.94-.7-2.77 0-.25-.02-.08-.06-.2Z"/><path fill="#000" d="M29.55 24.2a3.03 3.03 0 0 1-2.03-1.23.13.13 0 0 1 0-.17.12.12 0 0 1 .17 0 2.77 2.77 0 0 0 1.82 1.12 1.83 1.83 0 0 0 1.42-.86l.12-.16.08.19s.33.65.86.68c.54.04.92-.36 1.4-1.1a.12.12 0 0 1 .18-.03.12.12 0 0 1 .03.17c-.57.83-1.11 1.24-1.62 1.2a1.34 1.34 0 0 1-.97-.62 1.94 1.94 0 0 1-1.46.8Z"/><path fill="#FDC305" d="M31.24 35.7a3.22 3.22 0 0 0 3.23-3.21c0-1.77-1.45-3.2-3.23-3.2a3.22 3.22 0 0 0-3.23 3.2c0 1.77 1.44 3.2 3.23 3.2Z"/><path fill="#111" d="M35.52 29.88 32.82 31l1-4.81-6.47 8.34 2.7-1.12-1 4.82 6.47-8.35Zm-6.37 3.27 3.58-4.62-.7 3.42 1.73-.7-3.61 4.63.7-3.42-1.7.7ZM27.94 31.9c.54 0 .97-.43.97-.96a.96.96 0 0 0-.97-.96.96.96 0 0 0-.96.96c0 .53.43.96.96.96ZM33.56 35.37a.68.68 0 1 0 0-1.35c-.37 0-.68.3-.68.67 0 .37.3.68.68.68ZM34.39 33.51a.3.3 0 0 0 .3-.3.3.3 0 0 0-.3-.3.3.3 0 0 0-.3.3c0 .17.13.3.3.3Z"/><path fill="#F06351" d="M39.52 21.05a49.3 49.3 0 0 0-4.38 4.45 27.38 27.38 0 0 1-4.58 4.18c-.19-.45-1.4-1.3-1.4-1.3s-2.7-1.83-4.48-3.27c-.96-.8-1.86-1.65-2.7-2.57l-1.73-.1A19.48 19.48 0 0 0 30.6 30c.74-.12 2.82-1.6 4.38-2.8a49.47 49.47 0 0 0 5.17-5.05c.43-.5.76-1.09.98-1.71-.98.32-1.6.6-1.6.6ZM22.34 26.9s-3.29-1.24-4.5-1.57a3.26 3.26 0 0 0-3.44.54 4.33 4.33 0 0 0-1.49 3.29c.18.4.32.8.42 1.23.04.41-1.04.37-1.73.37s-.79-1.23-.25-2.67c.43-1.11.95-2.18 1.57-3.2C8.22 27.32 0 32.92 0 32.92c2.35-.14 4.71-.07 7.06.2 4.52.46 4.3 4 4.3 4 1.6-.44 3.21-.75 4.85-.95 1.83-.12 1.96 1.81 1.96 1.81l.45 3.3c.7-.74 1.46-1.42 2.29-2.02a5.25 5.25 0 0 1 3.77-1.1l-2.34-11.27Z"/></svg>
