<svg width="60" height="60" viewBox="0 0 60 60" fill="none" xmlns="http://www.w3.org/2000/svg">
<g clip-path="url(#clip0_3398_487)">
<path d="M51.3207 22.834C49.8391 19.2051 47.4532 16.0365 44.4006 13.644C41.348 11.2514 37.7354 9.71853 33.9228 9.19801C30.1101 8.67749 26.2306 9.18753 22.6709 10.6773C19.1111 12.1671 15.9955 14.5846 13.6344 17.6888C11.2733 20.7931 9.7492 24.4757 9.21406 28.3697C8.67891 32.2637 9.15137 36.2331 10.5843 39.8823C12.0173 43.5315 14.3608 46.733 17.3812 49.1679C20.4016 51.6027 23.9934 53.1859 27.7988 53.7595C27.3003 51.9233 26.7933 49.8938 26.3464 47.7413C27.6464 48.6034 29.0148 49.3528 30.4371 49.9816V49.9816C30.4371 49.9816 30.5403 51.8793 30.6778 53.9967C32.2146 54.0238 33.7499 53.8854 35.2584 53.5837C35.2194 53.363 35.2194 53.1368 35.2584 52.916C35.5076 51.2731 36.1951 48.3124 36.3327 46.4059C37.3238 45.4581 38.1646 44.3585 38.8249 43.1464V43.1464L38.7734 43.533C38.3007 47.2756 37.3124 51.2731 36.7108 52.3801C36.516 52.7465 36.2763 53.0861 35.9975 53.3905C39.1083 52.6444 42.0233 51.2156 44.5402 49.2032C47.0571 47.1907 49.1158 44.6428 50.5735 41.7359C52.0312 38.8291 52.853 35.6329 52.982 32.369C53.111 29.1051 52.5442 25.8516 51.3207 22.834V22.834ZM50.0573 26.1637C49.6792 26.5415 48.8971 26.7963 48.7682 25.6541C48.6393 24.512 48.6049 23.7125 48.6049 23.7125C48.6049 23.7125 46.9463 20.699 46.3275 20.6639C45.7087 20.6288 41.3172 23.7125 40.157 25.0567C39.1515 26.1901 38.9538 26.111 38.9538 28.1053C38.9538 29.6077 39.1429 35.2832 39.0398 39.6233L32.0356 41.5298C29.8341 42.1757 27.5953 42.6804 25.3323 43.041L24.4729 37.9189H24.3526L22.1439 26.3482C22.1439 26.3482 18.8696 25.0831 17.6664 24.7404C17.1015 24.4878 16.4776 24.4056 15.8685 24.5037C15.2594 24.6018 14.6904 24.876 14.2288 25.2939C13.7578 25.7155 13.3813 26.2358 13.1247 26.8195C12.8682 27.4032 12.7376 28.0365 12.742 28.6764C12.9237 29.0848 13.062 29.5118 13.1545 29.9503C13.1975 30.372 12.1232 30.3281 11.4357 30.3281C10.7482 30.3281 10.6451 29.063 11.1865 27.5782C11.6089 26.4365 12.1324 25.3367 12.7506 24.2924C13.2156 23.3595 13.8153 22.5036 14.5296 21.7533C14.5296 21.7533 14.6499 21.4546 15.6038 21.5425C16.5578 21.6303 21.8603 21.9202 21.8603 21.9202L21.9033 19.9259C27.6667 19.1124 33.4795 18.7189 39.2976 18.7486C39.2976 19.2845 39.2976 19.8205 39.2976 20.3564C41.5013 19.3283 43.8743 18.7323 46.2931 18.5993C46.4226 18.5959 46.5508 18.6255 46.6663 18.6853C46.7818 18.7451 46.8809 18.8333 46.9549 18.9419C47.2471 19.3197 49.026 21.5776 49.2323 21.9027C49.81 22.7467 50.3353 23.627 50.805 24.5384C50.644 25.1154 50.3914 25.6615 50.0573 26.1549V26.1637Z" fill="#FDC305"/>
<path d="M48.6363 20.8294C49.0411 21.3508 49.3943 21.8113 49.4977 21.9503C50.0768 22.7851 50.6033 23.6557 51.0741 24.5571C50.9102 25.1091 50.6601 25.6312 50.3333 26.1038C49.9543 26.4774 49.1704 26.7294 49.0411 25.5998C48.9119 24.4702 48.8602 23.7229 48.8602 23.7229C48.8602 23.7229 47.1977 20.7425 46.5775 20.7078C45.9572 20.673 41.5553 23.7229 40.3924 25.0524C39.3845 26.1733 39.1864 26.0951 39.1864 28.0675C39.1864 29.3709 39.3328 33.8458 39.2984 37.8254C40.8576 37.9992 43.149 38.4337 43.8381 39.459C43.8381 39.459 43.5883 33.2202 50.5659 36.4873C50.5659 36.4873 50.8071 27.9806 60.4378 30.1616C57.1639 26.2844 53.1505 23.1107 48.6363 20.8294V20.8294Z" fill="#F06351"/>
<path d="M39.5654 18.8135C39.6005 13.9987 39.1968 9.1907 38.3594 4.45035C38.3594 4.45035 38.2302 3.32075 37.61 4.24181C37.0982 5.34291 36.7499 6.51402 36.5763 7.71747C32.8938 7.47914 29.1975 7.57802 25.5328 8.0129C24.8264 5.62338 23.6204 4.53724 23.0432 4.82398C22.4661 5.11072 22.3972 7.67403 22.3972 7.67403L22.1129 19.9779C27.8956 19.1725 33.7279 18.7834 39.5654 18.8135V18.8135Z" fill="#F06351"/>
<path d="M39.0651 42.9434C39.1771 42.0136 39.2374 40.7798 39.2719 39.4156L32.2516 41.3011C30.0459 41.9546 27.8019 42.4682 25.5327 42.8391L26.4889 47.1837C26.4889 47.2793 26.4889 47.3748 26.5492 47.4704C27.8522 48.3231 29.2238 49.0642 30.6494 49.6862C32.7328 48.6815 34.7171 47.4799 36.5757 46.0975V46.1497C37.5647 45.217 38.4044 44.1354 39.0651 42.9434V42.9434Z" fill="#E55645"/>
<path d="M27.5657 16.0938C27.5227 16.0069 28.4271 16.6847 28.7803 16.8932C29.1334 17.1018 29.3057 17.2582 29.3057 17.4059C29.3057 17.5536 29.0818 17.7013 28.7717 17.7013C28.4616 17.7013 27.9792 17.5971 27.9103 17.4754C27.8414 17.3538 28.4271 17.4754 28.72 17.4754H28.9698C28.4395 17.084 27.9667 16.6189 27.5657 16.0938Z" fill="black"/>
<path d="M34.0264 16.1894C34.0264 16.1894 33.165 17.3016 33.0875 17.3538C33.0099 17.4059 32.941 17.6492 33.2511 17.6057C33.6071 17.5521 33.9585 17.4708 34.302 17.3624C34.3968 17.3103 34.3623 17.1887 34.1986 17.206C34.035 17.2234 33.6129 17.2495 33.3373 17.3016L34.0694 16.1981C34.0694 16.1981 34.0953 16.0938 34.0264 16.1894Z" fill="black"/>
<path d="M31.3215 21.4985C31.7208 21.321 32.0508 21.0156 32.2604 20.6296C32.5016 20.0561 32.2604 19.8389 31.8814 19.7607C31.36 19.6647 30.8218 19.7702 30.374 20.0561C30.038 20.3776 30.0811 20.6904 30.374 20.925C30.6649 21.1552 30.9832 21.3478 31.3215 21.4985V21.4985Z" fill="black"/>
<path d="M31.0113 22.5933C30.9124 22.7904 30.778 22.9672 30.615 23.1147C30.3697 23.3138 30.0682 23.4294 29.7537 23.4449C29.2794 23.4918 28.8052 23.3552 28.4271 23.0625C28.2535 22.9601 28.099 22.8278 27.9706 22.6715C27.8844 22.5769 27.7785 22.5027 27.6605 22.4543C27.6605 22.4543 28.3065 26.0255 29.8743 26.599C31.442 27.1725 31.7348 25.9387 31.7779 25.6085C31.8304 24.6196 31.5841 23.6379 31.0716 22.7932C31.0716 22.5325 31.0544 22.7063 31.0113 22.5933Z" fill="#F06351"/>
<path d="M29.5469 23.5839C29.1438 23.5254 28.7566 23.3852 28.4087 23.1716C28.0608 22.9581 27.7594 22.6756 27.5226 22.3413C27.5015 22.3174 27.4897 22.2865 27.4897 22.2544C27.4897 22.2224 27.5015 22.1915 27.5226 22.1676C27.5339 22.156 27.5473 22.1468 27.5621 22.1405C27.5769 22.1343 27.5927 22.131 27.6088 22.131C27.6248 22.131 27.6407 22.1343 27.6555 22.1405C27.6703 22.1468 27.6837 22.156 27.6949 22.1676C27.9081 22.4692 28.1785 22.7252 28.4905 22.9206C28.8025 23.116 29.1499 23.2469 29.5124 23.3058C29.7993 23.2841 30.0769 23.194 30.3225 23.0429C30.5681 22.8919 30.7746 22.6842 30.9251 22.4369L31.0457 22.2718L31.1319 22.463C31.1319 22.463 31.4592 23.1234 31.9932 23.1581C32.5273 23.1929 32.9063 22.7932 33.3973 22.0372C33.4156 22.0096 33.444 21.9904 33.4763 21.9838C33.5086 21.9773 33.5422 21.984 33.5696 22.0025C33.597 22.0209 33.616 22.0496 33.6225 22.0822C33.6289 22.1147 33.6223 22.1486 33.604 22.1762C33.0298 23.0278 32.4871 23.4362 31.976 23.4014C31.7785 23.375 31.5893 23.3043 31.4224 23.1946C31.2554 23.0848 31.115 22.9388 31.0113 22.7671C30.8427 23.0045 30.6238 23.201 30.3705 23.3423C30.1172 23.4836 29.8358 23.5661 29.5469 23.5839Z" fill="black"/>
<path d="M31.2353 35.2795C33.0192 35.2795 34.4655 33.8207 34.4655 32.0211C34.4655 30.2215 33.0192 28.7626 31.2353 28.7626C29.4513 28.7626 28.0051 30.2215 28.0051 32.0211C28.0051 33.8207 29.4513 35.2795 31.2353 35.2795Z" fill="#FDC305"/>
<path d="M35.5163 29.3709L32.8202 30.5092L33.8108 25.6172L27.3504 34.0978L30.0465 32.9595L29.0559 37.8602L35.5163 29.3709ZM29.1507 32.6988L32.734 27.998L32.0363 31.4737L33.7591 30.7611L30.1499 35.4707L30.8476 31.995L29.1507 32.6988Z" fill="#111111"/>
<path d="M27.9447 31.4215C28.4775 31.4215 28.9095 30.9858 28.9095 30.4483C28.9095 29.9109 28.4775 29.4751 27.9447 29.4751C27.4119 29.4751 26.9799 29.9109 26.9799 30.4483C26.9799 30.9858 27.4119 31.4215 27.9447 31.4215Z" fill="#111111"/>
<path d="M33.5612 34.9493C33.9371 34.9493 34.2417 34.642 34.2417 34.2629C34.2417 33.8838 33.9371 33.5764 33.5612 33.5764C33.1854 33.5764 32.8807 33.8838 32.8807 34.2629C32.8807 34.642 33.1854 34.9493 33.5612 34.9493Z" fill="#111111"/>
<path d="M34.3882 33.0638C34.5547 33.0638 34.6897 32.9276 34.6897 32.7597C34.6897 32.5917 34.5547 32.4555 34.3882 32.4555C34.2217 32.4555 34.0867 32.5917 34.0867 32.7597C34.0867 32.9276 34.2217 33.0638 34.3882 33.0638Z" fill="#111111"/>
<path d="M39.5224 20.3863C37.9674 21.8002 36.5029 23.3123 35.1377 24.9133C33.7778 26.5028 32.2433 27.9312 30.5635 29.171C30.374 28.7105 29.1594 27.8503 29.1594 27.8503C29.1594 27.8503 26.4545 25.9821 24.6799 24.5136C23.7207 23.7077 22.8169 22.8368 21.9751 21.9069L20.2522 21.8113C22.7392 25.4757 26.3826 28.183 30.5893 29.4925C31.3302 29.3709 33.4148 27.8677 34.974 26.6425C36.8187 25.0601 38.5461 23.3437 40.1426 21.5072C40.5717 20.9928 40.9044 20.4039 41.1246 19.7693C40.1426 20.0995 39.5224 20.3863 39.5224 20.3863Z" fill="#F06351"/>
<path d="M22.3368 26.3297C22.3368 26.3297 19.0548 25.0784 17.8488 24.7396C17.2825 24.4897 16.6572 24.4084 16.0467 24.5054C15.4361 24.6024 14.8658 24.8736 14.4031 25.287C13.931 25.7039 13.5536 26.2185 13.2964 26.7958C13.0393 27.373 12.9084 27.9994 12.9128 28.6323C13.0949 29.0362 13.2335 29.4585 13.3263 29.8922C13.3694 30.3093 12.2926 30.2659 11.6034 30.2659C10.9143 30.2659 10.8109 29.0146 11.3536 27.5462C11.777 26.417 12.3018 25.3292 12.9214 24.2964C8.22664 26.7641 0 32.4642 0 32.4642C2.35316 32.3211 4.71429 32.3909 7.0551 32.6728C11.5776 33.1333 11.3622 36.7306 11.3622 36.7306C12.9529 36.2883 14.574 35.9659 16.2121 35.7661C18.0383 35.6445 18.1675 37.6082 18.1675 37.6082L18.6241 40.9622C19.3173 40.2057 20.0819 39.5189 20.9069 38.9116C21.9703 38.0529 23.3243 37.6476 24.6799 37.782V37.782L22.3368 26.3297Z" fill="#F06351"/>


</g>
<defs>
<clipPath id="clip0_3398_487">
<rect width="60" height="60" fill="white"/>
</clipPath>
</defs>
</svg>
