<svg xmlns="http://www.w3.org/2000/svg">
		<symbol viewBox="0 0 40 40" id="logo-pic">
			<path d="M9.07 21.72V19.46C15.7536 18.5423 22.4937 18.0979 29.24 18.13C29.24 18.73 29.24 19.34 29.18 19.95C31.0976 19.099 33.1128 18.4877 35.18 18.13C33.8625 14.722 31.4618 11.8412 28.3471 9.93087C25.2325 8.02052 21.5764 7.1864 17.9414 7.55683C14.3064 7.92727 10.8938 9.48172 8.22852 11.9811C5.56325 14.4804 3.79297 17.7863 3.19 21.39L9.07 21.72Z" fill="#FDC305"/><path d="M30.24 25.23C29.08 26.51 28.85 26.43 28.85 28.68C28.85 29.59 28.85 33.58 28.85 37.86C31.1425 36.346 33.0245 34.2879 34.328 31.8694C35.6315 29.4509 36.3158 26.7474 36.32 24C36.3068 22.9591 36.1997 21.9216 36 20.9C33.9282 22.1295 31.9968 23.5814 30.24 25.23Z" fill="#FDC305"/>
			<path d="M9.36 26.72C9.36 26.72 5.57 25.28 4.17 24.89C3.78707 24.7693 3.3961 24.6757 3 24.61C3.1084 27.496 3.96559 30.3041 5.48739 32.7586C7.00919 35.2131 9.14326 37.2296 11.68 38.61L9.36 26.72Z" fill="#FDC305"/>
			<path d="M29.29 18.12C29.3307 12.5986 28.862 7.08528 27.89 1.65C27.89 1.65 27.75 0.36 27 1.41C26.4109 2.65814 26.0067 3.98539 25.8 5.35C21.5418 5.07577 17.2675 5.18957 13.03 5.69C12.24 3 10.85 1.75 10.18 2C9.51 2.25 9.46 5.31 9.46 5.31L9.13 19.41C15.8113 18.506 22.548 18.0749 29.29 18.12V18.12Z" fill="#F06351"/>
			<path d="M15.41 15C15.41 14.91 16.41 15.68 16.82 15.92C17.23 16.16 17.43 16.34 17.43 16.51C17.43 16.68 17.16 16.85 16.8 16.85C16.44 16.85 15.89 16.73 15.8 16.58H16.74H17.03C16.4207 16.1294 15.8757 15.5978 15.41 15V15Z" fill="black"/><path d="M22.89 15.11L21.8 16.44C21.8 16.5 21.63 16.79 21.98 16.74C22.3942 16.6783 22.8023 16.5812 23.2 16.45C23.31 16.45 23.27 16.26 23.09 16.28C22.91 16.3 22.4 16.33 22.09 16.39L22.93 15.13C22.93 15.13 23 15 22.89 15.11Z" fill="black"/>
			<path d="M19.75 21.2C20.2135 20.9958 20.5967 20.6443 20.84 20.2C21.12 19.55 20.84 19.29 20.4 19.2C19.7979 19.0902 19.1765 19.2116 18.66 19.54C18.27 19.9 18.32 20.26 18.61 20.54C18.9613 20.8062 19.3442 21.0279 19.75 21.2V21.2Z" fill="black"/>
			<path d="M19.35 22.45C19.2379 22.6785 19.0816 22.8825 18.89 23.05C18.6052 23.2791 18.2551 23.4122 17.89 23.43C17.3638 23.472 16.8406 23.3189 16.42 23C16.2222 22.8808 16.0436 22.7324 15.89 22.56C15.7895 22.4491 15.6669 22.3605 15.53 22.3C15.53 22.3 16.28 26.4 18.1 27.05C19.92 27.7 20.24 26.3 20.3 25.92C20.3601 24.7851 20.0742 23.6588 19.48 22.69C19.46 22.38 19.45 22.58 19.35 22.45Z" fill="#F06351"/>
			<path d="M17.71 23.59C17.2453 23.5247 16.7989 23.3651 16.3982 23.1209C15.9975 22.8767 15.651 22.5531 15.38 22.17C15.3667 22.157 15.3561 22.1414 15.3489 22.1242C15.3417 22.1071 15.338 22.0886 15.338 22.07C15.338 22.0514 15.3417 22.0329 15.3489 22.0158C15.3561 21.9986 15.3667 21.983 15.38 21.97C15.393 21.9567 15.4086 21.9461 15.4258 21.9389C15.4429 21.9317 15.4614 21.928 15.48 21.928C15.4986 21.928 15.5171 21.9317 15.5342 21.9389C15.5514 21.9461 15.567 21.9567 15.58 21.97C16.0848 22.6642 16.843 23.1313 17.69 23.27V23.27C18.0217 23.245 18.3426 23.1413 18.6261 22.9674C18.9096 22.7934 19.1475 22.5544 19.32 22.27L19.46 22.08L19.56 22.29C19.56 22.29 19.93 23.05 20.56 23.09C21.19 23.13 21.61 22.68 22.17 21.81C22.183 21.7967 22.1986 21.7861 22.2158 21.7789C22.2329 21.7717 22.2514 21.768 22.27 21.768C22.2886 21.768 22.3071 21.7717 22.3242 21.7789C22.3414 21.7861 22.357 21.7967 22.37 21.81C22.4023 21.8306 22.4255 21.8629 22.4348 21.9C22.4441 21.9372 22.4388 21.9766 22.42 22.01C21.78 23.01 21.15 23.45 20.54 23.41C20.308 23.3763 20.0867 23.2904 19.8927 23.1587C19.6987 23.0271 19.5371 22.8531 19.42 22.65C19.2233 22.9245 18.9676 23.1514 18.6717 23.3141C18.3758 23.4767 18.0472 23.571 17.71 23.59V23.59Z" fill="black"/>
			<path d="M29.24 19.92C27.4445 21.5437 25.7512 23.277 24.17 25.11C22.5986 26.9361 20.8238 28.5768 18.88 30C18.66 29.47 17.26 28.49 17.26 28.49C17.26 28.49 14.13 26.35 12.08 24.67C10.9741 23.7373 9.9287 22.7353 8.95 21.67L6.95 21.56C9.84017 25.7655 14.0702 28.8676 18.95 30.36C19.81 30.22 22.22 28.5 24.02 27.1C26.1389 25.2819 28.124 23.3134 29.96 21.21C30.4625 20.621 30.8493 19.9425 31.1 19.21C30 19.6 29.24 19.92 29.24 19.92Z" fill="#F06351"/>
		</symbol>
		<symbol viewBox="0 0 60 60" id="logo-pic">
			<path d="M51.3207 22.834C49.8391 19.2051 47.4532 16.0365 44.4006 13.644C41.348 11.2514 37.7354 9.71853 33.9228 9.19801C30.1101 8.67749 26.2306 9.18753 22.6709 10.6773C19.1111 12.1671 15.9955 14.5846 13.6344 17.6888C11.2733 20.7931 9.7492 24.4757 9.21406 28.3697C8.67891 32.2637 9.15137 36.2331 10.5843 39.8823C12.0173 43.5315 14.3608 46.733 17.3812 49.1679C20.4016 51.6027 23.9934 53.1859 27.7988 53.7595C27.3003 51.9233 26.7933 49.8938 26.3464 47.7413C27.6464 48.6034 29.0148 49.3528 30.4371 49.9816V49.9816C30.4371 49.9816 30.5403 51.8793 30.6778 53.9967C32.2146 54.0238 33.7499 53.8854 35.2584 53.5837C35.2194 53.363 35.2194 53.1368 35.2584 52.916C35.5076 51.2731 36.1951 48.3124 36.3327 46.4059C37.3238 45.4581 38.1646 44.3585 38.8249 43.1464V43.1464L38.7734 43.533C38.3007 47.2756 37.3124 51.2731 36.7108 52.3801C36.516 52.7465 36.2763 53.0861 35.9975 53.3905C39.1083 52.6444 42.0233 51.2156 44.5402 49.2032C47.0571 47.1907 49.1158 44.6428 50.5735 41.7359C52.0312 38.8291 52.853 35.6329 52.982 32.369C53.111 29.1051 52.5442 25.8516 51.3207 22.834V22.834ZM50.0573 26.1637C49.6792 26.5415 48.8971 26.7963 48.7682 25.6541C48.6393 24.512 48.6049 23.7125 48.6049 23.7125C48.6049 23.7125 46.9463 20.699 46.3275 20.6639C45.7087 20.6288 41.3172 23.7125 40.157 25.0567C39.1515 26.1901 38.9538 26.111 38.9538 28.1053C38.9538 29.6077 39.1429 35.2832 39.0398 39.6233L32.0356 41.5298C29.8341 42.1757 27.5953 42.6804 25.3323 43.041L24.4729 37.9189H24.3526L22.1439 26.3482C22.1439 26.3482 18.8696 25.0831 17.6664 24.7404C17.1015 24.4878 16.4776 24.4056 15.8685 24.5037C15.2594 24.6018 14.6904 24.876 14.2288 25.2939C13.7578 25.7155 13.3813 26.2358 13.1247 26.8195C12.8682 27.4032 12.7376 28.0365 12.742 28.6764C12.9237 29.0848 13.062 29.5118 13.1545 29.9503C13.1975 30.372 12.1232 30.3281 11.4357 30.3281C10.7482 30.3281 10.6451 29.063 11.1865 27.5782C11.6089 26.4365 12.1324 25.3367 12.7506 24.2924C13.2156 23.3595 13.8153 22.5036 14.5296 21.7533C14.5296 21.7533 14.6499 21.4546 15.6038 21.5425C16.5578 21.6303 21.8603 21.9202 21.8603 21.9202L21.9033 19.9259C27.6667 19.1124 33.4795 18.7189 39.2976 18.7486C39.2976 19.2845 39.2976 19.8205 39.2976 20.3564C41.5013 19.3283 43.8743 18.7323 46.2931 18.5993C46.4226 18.5959 46.5508 18.6255 46.6663 18.6853C46.7818 18.7451 46.8809 18.8333 46.9549 18.9419C47.2471 19.3197 49.026 21.5776 49.2323 21.9027C49.81 22.7467 50.3353 23.627 50.805 24.5384C50.644 25.1154 50.3914 25.6615 50.0573 26.1549V26.1637Z" fill="#FDC305"/>
			<path d="M48.6363 20.8294C49.0411 21.3508 49.3943 21.8113 49.4977 21.9503C50.0768 22.7851 50.6033 23.6557 51.0741 24.5571C50.9102 25.1091 50.6601 25.6312 50.3333 26.1038C49.9543 26.4774 49.1704 26.7294 49.0411 25.5998C48.9119 24.4702 48.8602 23.7229 48.8602 23.7229C48.8602 23.7229 47.1977 20.7425 46.5775 20.7078C45.9572 20.673 41.5553 23.7229 40.3924 25.0524C39.3845 26.1733 39.1864 26.0951 39.1864 28.0675C39.1864 29.3709 39.3328 33.8458 39.2984 37.8254C40.8576 37.9992 43.149 38.4337 43.8381 39.459C43.8381 39.459 43.5883 33.2202 50.5659 36.4873C50.5659 36.4873 50.8071 27.9806 60.4378 30.1616C57.1639 26.2844 53.1505 23.1107 48.6363 20.8294V20.8294Z" fill="#F06351"/>
			<path d="M39.5654 18.8135C39.6005 13.9987 39.1968 9.1907 38.3594 4.45035C38.3594 4.45035 38.2302 3.32075 37.61 4.24181C37.0982 5.34291 36.7499 6.51402 36.5763 7.71747C32.8938 7.47914 29.1975 7.57802 25.5328 8.0129C24.8264 5.62338 23.6204 4.53724 23.0432 4.82398C22.4661 5.11072 22.3972 7.67403 22.3972 7.67403L22.1129 19.9779C27.8956 19.1725 33.7279 18.7834 39.5654 18.8135V18.8135Z" fill="#F06351"/>
			<path d="M39.0651 42.9434C39.1771 42.0136 39.2374 40.7798 39.2719 39.4156L32.2516 41.3011C30.0459 41.9546 27.8019 42.4682 25.5327 42.8391L26.4889 47.1837C26.4889 47.2793 26.4889 47.3748 26.5492 47.4704C27.8522 48.3231 29.2238 49.0642 30.6494 49.6862C32.7328 48.6815 34.7171 47.4799 36.5757 46.0975V46.1497C37.5647 45.217 38.4044 44.1354 39.0651 42.9434V42.9434Z" fill="#E55645"/>
			<path d="M27.5657 16.0938C27.5227 16.0069 28.4271 16.6847 28.7803 16.8932C29.1334 17.1018 29.3057 17.2582 29.3057 17.4059C29.3057 17.5536 29.0818 17.7013 28.7717 17.7013C28.4616 17.7013 27.9792 17.5971 27.9103 17.4754C27.8414 17.3538 28.4271 17.4754 28.72 17.4754H28.9698C28.4395 17.084 27.9667 16.6189 27.5657 16.0938Z" fill="black"/>
			<path d="M34.0264 16.1894C34.0264 16.1894 33.165 17.3016 33.0875 17.3538C33.0099 17.4059 32.941 17.6492 33.2511 17.6057C33.6071 17.5521 33.9585 17.4708 34.302 17.3624C34.3968 17.3103 34.3623 17.1887 34.1986 17.206C34.035 17.2234 33.6129 17.2495 33.3373 17.3016L34.0694 16.1981C34.0694 16.1981 34.0953 16.0938 34.0264 16.1894Z" fill="black"/>
			<path d="M31.3215 21.4985C31.7208 21.321 32.0508 21.0156 32.2604 20.6296C32.5016 20.0561 32.2604 19.8389 31.8814 19.7607C31.36 19.6647 30.8218 19.7702 30.374 20.0561C30.038 20.3776 30.0811 20.6904 30.374 20.925C30.6649 21.1552 30.9832 21.3478 31.3215 21.4985V21.4985Z" fill="black"/>
			<path d="M31.0113 22.5933C30.9124 22.7904 30.778 22.9672 30.615 23.1147C30.3697 23.3138 30.0682 23.4294 29.7537 23.4449C29.2794 23.4918 28.8052 23.3552 28.4271 23.0625C28.2535 22.9601 28.099 22.8278 27.9706 22.6715C27.8844 22.5769 27.7785 22.5027 27.6605 22.4543C27.6605 22.4543 28.3065 26.0255 29.8743 26.599C31.442 27.1725 31.7348 25.9387 31.7779 25.6085C31.8304 24.6196 31.5841 23.6379 31.0716 22.7932C31.0716 22.5325 31.0544 22.7063 31.0113 22.5933Z" fill="#F06351"/>
			<path d="M29.5469 23.5839C29.1438 23.5254 28.7566 23.3852 28.4087 23.1716C28.0608 22.9581 27.7594 22.6756 27.5226 22.3413C27.5015 22.3174 27.4897 22.2865 27.4897 22.2544C27.4897 22.2224 27.5015 22.1915 27.5226 22.1676C27.5339 22.156 27.5473 22.1468 27.5621 22.1405C27.5769 22.1343 27.5927 22.131 27.6088 22.131C27.6248 22.131 27.6407 22.1343 27.6555 22.1405C27.6703 22.1468 27.6837 22.156 27.6949 22.1676C27.9081 22.4692 28.1785 22.7252 28.4905 22.9206C28.8025 23.116 29.1499 23.2469 29.5124 23.3058C29.7993 23.2841 30.0769 23.194 30.3225 23.0429C30.5681 22.8919 30.7746 22.6842 30.9251 22.4369L31.0457 22.2718L31.1319 22.463C31.1319 22.463 31.4592 23.1234 31.9932 23.1581C32.5273 23.1929 32.9063 22.7932 33.3973 22.0372C33.4156 22.0096 33.444 21.9904 33.4763 21.9838C33.5086 21.9773 33.5422 21.984 33.5696 22.0025C33.597 22.0209 33.616 22.0496 33.6225 22.0822C33.6289 22.1147 33.6223 22.1486 33.604 22.1762C33.0298 23.0278 32.4871 23.4362 31.976 23.4014C31.7785 23.375 31.5893 23.3043 31.4224 23.1946C31.2554 23.0848 31.115 22.9388 31.0113 22.7671C30.8427 23.0045 30.6238 23.201 30.3705 23.3423C30.1172 23.4836 29.8358 23.5661 29.5469 23.5839Z" fill="black"/>
			<path d="M31.2353 35.2795C33.0192 35.2795 34.4655 33.8207 34.4655 32.0211C34.4655 30.2215 33.0192 28.7626 31.2353 28.7626C29.4513 28.7626 28.0051 30.2215 28.0051 32.0211C28.0051 33.8207 29.4513 35.2795 31.2353 35.2795Z" fill="#FDC305"/>
			<path d="M35.5163 29.3709L32.8202 30.5092L33.8108 25.6172L27.3504 34.0978L30.0465 32.9595L29.0559 37.8602L35.5163 29.3709ZM29.1507 32.6988L32.734 27.998L32.0363 31.4737L33.7591 30.7611L30.1499 35.4707L30.8476 31.995L29.1507 32.6988Z" fill="#111111"/>
			<path d="M27.9447 31.4215C28.4775 31.4215 28.9095 30.9858 28.9095 30.4483C28.9095 29.9109 28.4775 29.4751 27.9447 29.4751C27.4119 29.4751 26.9799 29.9109 26.9799 30.4483C26.9799 30.9858 27.4119 31.4215 27.9447 31.4215Z" fill="#111111"/>
			<path d="M33.5612 34.9493C33.9371 34.9493 34.2417 34.642 34.2417 34.2629C34.2417 33.8838 33.9371 33.5764 33.5612 33.5764C33.1854 33.5764 32.8807 33.8838 32.8807 34.2629C32.8807 34.642 33.1854 34.9493 33.5612 34.9493Z" fill="#111111"/>
			<path d="M34.3882 33.0638C34.5547 33.0638 34.6897 32.9276 34.6897 32.7597C34.6897 32.5917 34.5547 32.4555 34.3882 32.4555C34.2217 32.4555 34.0867 32.5917 34.0867 32.7597C34.0867 32.9276 34.2217 33.0638 34.3882 33.0638Z" fill="#111111"/>
			<path d="M39.5224 20.3863C37.9674 21.8002 36.5029 23.3123 35.1377 24.9133C33.7778 26.5028 32.2433 27.9312 30.5635 29.171C30.374 28.7105 29.1594 27.8503 29.1594 27.8503C29.1594 27.8503 26.4545 25.9821 24.6799 24.5136C23.7207 23.7077 22.8169 22.8368 21.9751 21.9069L20.2522 21.8113C22.7392 25.4757 26.3826 28.183 30.5893 29.4925C31.3302 29.3709 33.4148 27.8677 34.974 26.6425C36.8187 25.0601 38.5461 23.3437 40.1426 21.5072C40.5717 20.9928 40.9044 20.4039 41.1246 19.7693C40.1426 20.0995 39.5224 20.3863 39.5224 20.3863Z" fill="#F06351"/>
			<path d="M22.3368 26.3297C22.3368 26.3297 19.0548 25.0784 17.8488 24.7396C17.2825 24.4897 16.6572 24.4084 16.0467 24.5054C15.4361 24.6024 14.8658 24.8736 14.4031 25.287C13.931 25.7039 13.5536 26.2185 13.2964 26.7958C13.0393 27.373 12.9084 27.9994 12.9128 28.6323C13.0949 29.0362 13.2335 29.4585 13.3263 29.8922C13.3694 30.3093 12.2926 30.2659 11.6034 30.2659C10.9143 30.2659 10.8109 29.0146 11.3536 27.5462C11.777 26.417 12.3018 25.3292 12.9214 24.2964C8.22664 26.7641 0 32.4642 0 32.4642C2.35316 32.3211 4.71429 32.3909 7.0551 32.6728C11.5776 33.1333 11.3622 36.7306 11.3622 36.7306C12.9529 36.2883 14.574 35.9659 16.2121 35.7661C18.0383 35.6445 18.1675 37.6082 18.1675 37.6082L18.6241 40.9622C19.3173 40.2057 20.0819 39.5189 20.9069 38.9116C21.9703 38.0529 23.3243 37.6476 24.6799 37.782V37.782L22.3368 26.3297Z" fill="#F06351"/>
		</symbol>
		<symbol viewBox="0 0 70 70" id="logo-pic">
			<path d="M59.8825 29.2098C58.1585 25.0433 55.3821 21.4052 51.83 18.6582C48.2778 15.9111 44.074 14.1511 39.6374 13.5534C35.2008 12.9558 30.6864 13.5414 26.5441 15.2519C22.4017 16.9624 18.7762 19.7381 16.0287 23.3023C13.2812 26.8666 11.5077 31.0948 10.885 35.5658C10.2622 40.0368 10.812 44.5943 12.4795 48.7842C14.147 52.9741 16.874 56.65 20.3887 59.4457C23.9034 62.2413 28.083 64.059 32.5111 64.7176C31.9311 62.6093 31.3411 60.2791 30.8211 57.8077C32.3339 58.7975 33.9262 59.658 35.5813 60.38V60.38C35.5813 60.38 35.7013 62.5588 35.8613 64.9899C37.6496 65.021 39.4362 64.8621 41.1916 64.5158C41.1462 64.2623 41.1462 64.0027 41.1916 63.7492C41.4816 61.8628 42.2816 58.4634 42.4416 56.2744C43.595 55.1862 44.5734 53.9236 45.3418 52.5319V52.5319L45.2818 52.9758C44.7317 57.273 43.5817 61.8628 42.8817 63.1338C42.655 63.5546 42.3761 63.9444 42.0516 64.2939C45.6716 63.4373 49.0636 61.7968 51.9924 59.4862C54.9212 57.1755 57.3168 54.25 59.013 50.9125C60.7093 47.5749 61.6656 43.9052 61.8158 40.1577C61.9659 36.4102 61.3062 32.6746 59.8825 29.2098V29.2098ZM58.4124 33.033C57.9724 33.4667 57.0624 33.7592 56.9123 32.4479C56.7623 31.1365 56.7223 30.2186 56.7223 30.2186C56.7223 30.2186 54.7922 26.7586 54.0722 26.7182C53.3522 26.6779 48.2419 30.2186 46.8919 31.7619C45.7218 33.0632 45.4918 32.9724 45.4918 35.2623C45.4918 36.9872 45.7118 43.5037 45.5918 48.4869L37.4414 50.6759C34.8796 51.4175 32.2744 51.9969 29.641 52.4109L28.6409 46.5299H28.5009L25.9308 33.2448C25.9308 33.2448 22.1206 31.7922 20.7206 31.3988C20.0632 31.1087 19.3372 31.0144 18.6284 31.127C17.9196 31.2396 17.2575 31.5544 16.7204 32.0343C16.1723 32.5183 15.7342 33.1157 15.4356 33.7859C15.1371 34.4561 14.9852 35.1833 14.9903 35.918C15.2017 36.3868 15.3626 36.8772 15.4703 37.3806C15.5203 37.8648 14.2702 37.8144 13.4702 37.8144C12.6702 37.8144 12.5502 36.3618 13.1802 34.657C13.6717 33.3462 14.2809 32.0834 15.0003 30.8843C15.5413 29.8133 16.2392 28.8305 17.0704 27.9691C17.0704 27.9691 17.2104 27.6261 18.3204 27.727C19.4305 27.8278 25.6008 28.1607 25.6008 28.1607L25.6508 25.8709C32.3575 24.9368 39.1216 24.4851 45.8918 24.5192C45.8918 25.1345 45.8918 25.7498 45.8918 26.3652C48.4562 25.1847 51.2175 24.5004 54.0322 24.3477C54.1828 24.3438 54.332 24.3778 54.4664 24.4464C54.6008 24.5151 54.7162 24.6163 54.8022 24.7411C55.1423 25.1749 57.2124 27.7673 57.4524 28.1406C58.1246 29.1097 58.7359 30.1204 59.2825 31.1668C59.0951 31.8293 58.8012 32.4564 58.4124 33.0229V33.033Z" fill="#FDC305"/>
			<path d="M56.4628 26.8594C56.9329 27.4647 57.3429 27.9993 57.4629 28.1607C58.1351 29.1298 58.7464 30.1406 59.293 31.1869C59.1027 31.8278 58.8124 32.4339 58.4329 32.9825C57.9929 33.4163 57.0829 33.7088 56.9329 32.3974C56.7829 31.0861 56.7229 30.2186 56.7229 30.2186C56.7229 30.2186 54.7928 26.7586 54.0727 26.7182C53.3527 26.6779 48.2424 30.2186 46.8924 31.7619C45.7223 33.0632 45.4923 32.9724 45.4923 35.2623C45.4923 36.7754 45.6623 41.9704 45.6223 46.5904C47.4324 46.7922 50.0925 47.2966 50.8926 48.4869C50.8926 48.4869 50.6026 41.2441 58.703 45.037C58.703 45.037 58.983 35.1614 70.1635 37.6933C66.3628 33.1922 61.7035 29.5079 56.4628 26.8594V26.8594Z" fill="#F06351"/>
			<path d="M45.9323 24.5192C45.9729 18.9295 45.5043 13.3478 44.5322 7.84465C44.5322 7.84465 44.3822 6.53329 43.6622 7.60255C43.068 8.88085 42.6636 10.2404 42.4621 11.6375C38.1871 11.3608 33.896 11.4756 29.6415 11.9805C28.8214 9.20645 27.4214 7.94553 26.7513 8.27841C26.0813 8.6113 26.0013 11.5871 26.0013 11.5871L25.6713 25.8709C32.3846 24.9358 39.1554 24.4841 45.9323 24.5192V24.5192Z" fill="#F06351"/>
			<path d="M45.3515 52.5319C45.4815 51.4526 45.5515 50.0202 45.5915 48.4364L37.4415 50.6254C34.8809 51.384 32.2758 51.9804 29.6415 52.4109L30.7515 57.4546C30.7515 57.5656 30.7515 57.6765 30.8215 57.7875C32.3342 58.7774 33.9265 59.6378 35.5815 60.3598C38.0002 59.1935 40.3038 57.7986 42.4615 56.1937V56.2542C43.6096 55.1714 44.5845 53.9158 45.3515 52.5319V52.5319Z" fill="#E55645"/>
			<path d="M32.0016 21.3618C31.9516 21.2609 33.0016 22.0477 33.4116 22.2898C33.8216 22.5319 34.0216 22.7135 34.0216 22.885C34.0216 23.0565 33.7616 23.228 33.4016 23.228C33.0416 23.228 32.4816 23.1069 32.4016 22.9657C32.3216 22.8245 33.0016 22.9657 33.3416 22.9657H33.6316C33.0159 22.5114 32.4672 21.9714 32.0016 21.3618Z" fill="black"/>
			<path d="M39.502 21.4728C39.502 21.4728 38.502 22.764 38.412 22.8245C38.322 22.885 38.2419 23.1675 38.6019 23.117C39.0152 23.0548 39.4231 22.9604 39.8219 22.8346C39.9319 22.774 39.892 22.6328 39.702 22.653C39.512 22.6732 39.022 22.7034 38.702 22.764L39.5519 21.4829C39.5519 21.4829 39.582 21.3618 39.502 21.4728Z" fill="black"/>
			<path d="M36.3617 27.6362C36.8253 27.4302 37.2084 27.0756 37.4517 26.6274C37.7317 25.9617 37.4517 25.7095 37.0117 25.6187C36.4064 25.5073 35.7817 25.6297 35.2617 25.9617C34.8717 26.3349 34.9217 26.6981 35.2617 26.9704C35.5995 27.2376 35.9691 27.4613 36.3617 27.6362V27.6362Z" fill="black"/>
			<path d="M36.0016 28.9072C35.8868 29.136 35.7308 29.3412 35.5416 29.5124C35.2568 29.7436 34.9067 29.8778 34.5416 29.8958C33.991 29.9503 33.4405 29.7916 33.0016 29.4519C32.8 29.333 32.6206 29.1793 32.4716 28.998C32.3715 28.8881 32.2486 28.802 32.1116 28.7458C32.1116 28.7458 32.8616 32.8917 34.6816 33.5575C36.5016 34.2233 36.8416 32.7909 36.8916 32.4075C36.9525 31.2595 36.6666 30.1198 36.0716 29.1392C36.0716 28.8366 36.0516 29.0383 36.0016 28.9072Z" fill="#F06351"/>
			<path d="M34.3015 30.0572C33.8335 29.9893 33.384 29.8265 32.9801 29.5786C32.5763 29.3306 32.2263 29.0027 31.9515 28.6147C31.9269 28.5869 31.9133 28.551 31.9133 28.5138C31.9133 28.4766 31.9269 28.4407 31.9515 28.4129C31.9646 28.3995 31.9801 28.3888 31.9973 28.3816C32.0145 28.3743 32.0329 28.3705 32.0515 28.3705C32.0702 28.3705 32.0886 28.3743 32.1058 28.3816C32.1229 28.3888 32.1385 28.3995 32.1515 28.4129C32.399 28.7631 32.7129 29.0603 33.0751 29.2871C33.4374 29.5139 33.8406 29.666 34.2615 29.7344C34.5945 29.7091 34.9168 29.6045 35.2019 29.4292C35.487 29.2538 35.7268 29.0127 35.9015 28.7256L36.0415 28.534L36.1415 28.7559C36.1415 28.7559 36.5215 29.5225 37.1415 29.5629C37.7615 29.6032 38.2015 29.1392 38.7715 28.2616C38.7927 28.2295 38.8257 28.2072 38.8632 28.1996C38.9007 28.1921 38.9397 28.1998 38.9715 28.2212C39.0034 28.2427 39.0254 28.2759 39.0329 28.3138C39.0404 28.3516 39.0327 28.3909 39.0115 28.423C38.3449 29.4116 37.7149 29.8857 37.1215 29.8453C36.8922 29.8147 36.6726 29.7326 36.4788 29.6052C36.285 29.4778 36.1219 29.3082 36.0015 29.1089C35.8059 29.3845 35.5518 29.6127 35.2577 29.7767C34.9636 29.9407 34.6369 30.0365 34.3015 30.0572Z" fill="black"/>
			<path d="M36.2616 43.6348C38.3327 43.6348 40.0116 41.9412 40.0116 39.8521C40.0116 37.7629 38.3327 36.0693 36.2616 36.0693C34.1905 36.0693 32.5116 37.7629 32.5116 39.8521C32.5116 41.9412 34.1905 43.6348 36.2616 43.6348Z" fill="#FDC305"/>
			<path d="M41.2316 36.7754L38.1016 38.0968L39.2516 32.4176L31.7516 42.2629L34.8816 40.9415L33.7316 46.6308L41.2316 36.7754ZM33.8416 40.6389L38.0016 35.1816L37.1916 39.2165L39.1916 38.3894L35.0016 43.8568L35.8116 39.8218L33.8416 40.6389Z" fill="#111111"/>
			<path d="M32.4415 39.156C33.0601 39.156 33.5615 38.6502 33.5615 38.0262C33.5615 37.4023 33.0601 36.8964 32.4415 36.8964C31.823 36.8964 31.3215 37.4023 31.3215 38.0262C31.3215 38.6502 31.823 39.156 32.4415 39.156Z" fill="#111111"/>
			<path d="M38.9619 43.2515C39.3982 43.2515 39.7519 42.8947 39.7519 42.4546C39.7519 42.0145 39.3982 41.6577 38.9619 41.6577C38.5256 41.6577 38.1719 42.0145 38.1719 42.4546C38.1719 42.8947 38.5256 43.2515 38.9619 43.2515Z" fill="#111111"/>
			<path d="M39.9219 41.0625C40.1152 41.0625 40.2719 40.9045 40.2719 40.7095C40.2719 40.5145 40.1152 40.3564 39.9219 40.3564C39.7286 40.3564 39.5719 40.5145 39.5719 40.7095C39.5719 40.9045 39.7286 41.0625 39.9219 41.0625Z" fill="#111111"/>
			<path d="M45.8822 26.345C44.077 27.9865 42.3768 29.7419 40.792 31.6005C39.2133 33.4458 37.4318 35.1041 35.4817 36.5434C35.2617 36.0087 33.8516 35.0101 33.8516 35.0101C33.8516 35.0101 30.7115 32.8413 28.6514 31.1365C27.5377 30.2009 26.4886 29.1898 25.5112 28.1103L23.5111 27.9993C26.3983 32.2534 30.628 35.3963 35.5117 36.9166C36.3717 36.7754 38.7919 35.0303 40.602 33.6079C42.7434 31.7709 44.7489 29.7784 46.6022 27.6463C47.1004 27.0491 47.4867 26.3654 47.7423 25.6288C46.6023 26.0121 45.8822 26.345 45.8822 26.345Z" fill="#F06351"/>
			<path d="M65.2227 8.5306L56.7627 18.0531L55.5427 16.0457L63.6927 5L65.2227 8.5306Z" fill="#FDC305"/>
			<path d="M62.6531 22.4109L68.1931 18.265L67.4131 14.4923L62.0131 19.3443L62.6531 22.4109Z" fill="#FDC305"/>
			<path d="M59.923 54.8016L66.053 58.0094L69.063 55.649L62.373 52.8749L59.923 54.8016Z" fill="#FDC305"/>
			<path d="M1.94995 11.0222L5.01995 7.63282L14.31 16.7115L13.09 19.0114L1.94995 11.0222Z" fill="#FDC305"/>
			<path d="M7.38003 21.4223L2.68003 18.265L0.280029 22.1688L5.43003 24.5898L7.38003 21.4223Z" fill="#FDC305"/>
			<path d="M13.91 58.0094L9.35999 61.3887L12.16 65L16.18 60.9449L13.91 58.0094Z" fill="#FDC305"/>
			<path d="M25.9313 33.2448C25.9313 33.2448 22.1211 31.7922 20.721 31.3988C20.0636 31.1087 19.3377 31.0144 18.6289 31.127C17.9201 31.2396 17.258 31.5544 16.7208 32.0343C16.1728 32.5183 15.7346 33.1157 15.4361 33.7859C15.1375 34.4561 14.9856 35.1833 14.9907 35.918C15.2021 36.3868 15.3631 36.8772 15.4708 37.3806C15.5208 37.8648 14.2707 37.8144 13.4707 37.8144C12.6706 37.8144 12.5506 36.3618 13.1807 34.657C13.6722 33.3462 14.2814 32.0834 15.0007 30.8843C9.55047 33.7492 0 40.3665 0 40.3665C2.73182 40.2003 5.47292 40.2814 8.1904 40.6086C13.4407 41.1432 13.1907 45.3194 13.1907 45.3194C15.0373 44.8059 16.9192 44.4316 18.8209 44.1997C20.941 44.0585 21.091 46.3383 21.091 46.3383L21.6211 50.232C22.4259 49.3537 23.3134 48.5564 24.2712 47.8514C25.5057 46.8545 27.0776 46.3839 28.6514 46.54V46.54L25.9313 33.2448Z" fill="#F06351"/>
		</symbol>
		<symbol viewBox="0 0 101 18" id="logo-text">
			<path d="M2.26 16.54A6.86 6.86 0 0 1 1 12.24v-6.4c-.1-1.54.3-3.08 1.19-4.38C3.05.46 4.39 0 6.37 0c1.98 0 3.24.46 4.03 1.3a5.42 5.42 0 0 1 1.19 3.78v1.54H7.72V4.85a3.7 3.7 0 0 0-.24-1.54 1.16 1.16 0 0 0-1.1-.62c-.56 0-.95.16-1.11.54a4.85 4.85 0 0 0-.24 1.7v8.22c-.04.56.07 1.12.32 1.62.15.38.55.54 1.1.54.56 0 .87-.16 1.03-.54.18-.52.26-1.07.24-1.62v-1.84h3.87v1.54a5.77 5.77 0 0 1-1.19 3.84c-.79.93-2.13 1.39-4.03 1.39-1.9-.08-3.32-.54-4.1-1.54ZM16.25.23h4.5l3.33 17.54h-3.64l-.63-3.7h-2.6l-.64 3.7h-3.72L16.25.23Zm3.24 11.54-.95-6.85-.94 6.85h1.9ZM26.84 3.15h-2.68V.23h9.4v2.85h-2.69v14.69h-4.03V3.15ZM40.75.23h6.96v1.85h-4.5v5.77h3.63v1.77H43.2v6.46h4.5v1.77h-7.03V.23h.08ZM49.76.23h1.74l5.14 11.62V.23h2.05v17.54h-1.58l-5.21-12v12h-2.14V.23ZM61.06.23h6.96v1.85h-4.5v5.77h3.63v1.77H63.5v6.46h4.5v1.77h-6.95V.23ZM70.07.23h3.64c1.43-.1 2.85.28 4.03 1.08C78.6 2 79 3.23 79 4.85c0 2.23-.7 3.61-2.21 4.07l2.53 8.77h-2.45L74.5 9.46h-1.98v8.23H70V.23h.08Zm3.48 7.54c.81.06 1.63-.15 2.3-.62.47-.38.7-1.15.7-2.3a4.85 4.85 0 0 0-.23-1.7c-.18-.39-.49-.71-.87-.92a3.69 3.69 0 0 0-1.74-.3h-1.1v5.76h.94v.08ZM82.16 16.46a7.61 7.61 0 0 1-1.1-4.46V6.15c-.02-1.11.11-2.22.4-3.3.26-.81.78-1.51 1.5-2 .88-.51 1.9-.75 2.92-.7 1.66 0 2.84.39 3.55 1.23a5.77 5.77 0 0 1 1.11 3.85v.62h-2.37V5.3c0-.65-.05-1.29-.16-1.93-.06-.4-.3-.76-.63-1a2.5 2.5 0 0 0-1.5-.38 2.42 2.42 0 0 0-1.58.46 1.75 1.75 0 0 0-.63 1.23c-.1.69-.16 1.38-.16 2.08v6.54c-.06 1 .1 2 .47 2.92.32.62.95.85 1.9.85a1.96 1.96 0 0 0 1.9-.93c.41-.97.6-2.02.55-3.07v-1.23h-2.3V9.08h4.59v8.69h-1.58l-.24-2c-.2.67-.64 1.25-1.22 1.66-.6.4-1.3.6-2.02.57a4.05 4.05 0 0 1-3.4-1.54ZM95.68 11.62 91.8.3h2.37l2.76 8.46L99.63.3H102l-3.87 11.3v6.16h-2.37v-6.15h-.08Z"/>
		</symbol>
	</svg>
