<svg width="67" height="57" viewBox="0 0 67 57" fill="none" xmlns="http://www.w3.org/2000/svg">
<circle cx="35" cy="30" r="25" fill="#68B738"/>
<path d="M45.2034 2H45.008C44.6778 2.18708 44.415 2.47392 44.2571 2.81959C43.968 3.37738 43.7453 3.96735 43.5937 4.57732C43.5612 4.76073 43.4688 4.92811 43.331 5.05315C43.1932 5.17818 43.0179 5.25377 42.8326 5.26804C42.2658 5.36597 41.7288 5.59243 41.2626 5.93012C40.7965 6.26781 40.4135 6.7078 40.1429 7.21649C39.7708 7.87697 39.4526 8.5665 39.1914 9.27835C38.4611 11.1753 37.9006 13.134 37.2114 15.0464C36.8874 15.9175 36.872 15.9175 35.8949 15.9175C34.7274 15.9175 34.8097 15.7371 34.7943 17.0258C34.7943 17.433 34.9177 17.6392 35.3497 17.6186C35.4834 17.6186 35.684 17.5515 35.7354 17.7268C35.7869 17.9021 35.612 17.9794 35.5091 18.0825C34.8994 18.7029 34.1276 19.1388 33.2823 19.3402C32.3051 19.6031 31.3074 19.8093 30.356 20.1289C27.9131 20.9485 25.6554 22.0928 23.8966 24.0309C22.8681 25.2347 22.0445 26.6001 21.4589 28.0722C19.5714 32.5258 18.656 37.2165 17.9463 41.9536C17.612 44.1753 17.3754 46.4072 17.1954 48.6546C17.1029 49.7577 17 50.8763 17 52H34.1411C34.1696 51.7731 34.1283 51.543 34.0229 51.3402C33.858 50.9289 33.5901 50.5672 33.2451 50.29C32.9 50.0128 32.4895 49.8295 32.0531 49.7577C31.6931 49.6753 31.652 49.567 31.8731 49.2835C32.2338 48.801 32.5103 48.2607 32.6909 47.6856C33.5291 45.2062 33.8531 42.6186 34.2594 40.0567C34.4889 38.0999 35.0894 36.2051 36.0286 34.4742C36.7611 33.2002 37.7382 32.0842 38.9034 31.1907C39.3303 30.866 39.3457 30.866 39.4177 31.4175C39.4691 31.7835 39.4794 32.1598 39.5051 32.5309C39.6595 34.9662 39.6285 37.4097 39.4126 39.8402C39.2184 41.7242 39.1926 43.6217 39.3354 45.5103C39.5399 47.7029 39.9304 49.8739 40.5029 52H47.3429C47.2536 51.442 46.9973 50.9243 46.6078 50.5156C46.2184 50.1069 45.7143 49.8264 45.1623 49.7113C44.5177 49.6087 43.8587 49.6438 43.2286 49.8144C42.92 49.8866 42.7914 49.8144 42.7657 49.4794C42.5529 46.7505 42.7261 44.0051 43.28 41.3247C43.966 38.2304 44.4912 35.1025 44.8537 31.9536C44.9887 30.6819 45.3881 29.4528 46.0263 28.3454C46.6383 27.2526 47.1731 26.1186 47.7749 25.0206C48.0138 24.6214 48.1575 24.1723 48.195 23.7083C48.2325 23.2443 48.1626 22.7779 47.9909 22.3454C47.852 21.9794 47.7183 21.6082 47.5486 21.2577C47.0343 20.2526 46.52 19.2577 46.0469 18.2423C45.7949 17.7268 45.8514 17.6649 46.412 17.6495C47.2503 17.6495 47.2503 17.6495 47.2657 16.8041C47.2657 16.6907 47.2657 16.5773 47.2657 16.4639C47.2657 16.1082 47.132 15.9124 46.7514 15.9485C46.4943 15.9485 46.2371 15.9485 45.9697 15.9485C45.6149 15.9485 45.512 15.799 45.5994 15.433C45.7729 14.838 46.1142 14.306 46.5823 13.9009C47.0503 13.4958 47.6252 13.2349 48.2377 13.1495C49.3772 13.0505 50.5251 13.1252 51.6423 13.3711C51.7712 13.4118 51.9109 13.4001 52.0312 13.3383C52.1515 13.2766 52.2427 13.1699 52.2851 13.0412C52.4909 12.5258 52.7171 12.0103 52.9486 11.4948C53.001 11.4034 53.0242 11.298 53.015 11.1929C53.0058 11.0878 52.9647 10.9881 52.8971 10.9072C51.2514 8.81443 49.4669 6.86082 47.0343 5.60825C46.9168 5.55754 46.8138 5.47814 46.7347 5.3773C46.6557 5.27646 46.6031 5.15738 46.5817 5.03093C46.444 4.29408 46.225 3.57487 45.9286 2.8866C45.7895 2.5199 45.5349 2.20865 45.2034 2V2Z" fill="black"/>
</svg>
