<svg width="67" height="57" viewBox="0 0 67 57" fill="none" xmlns="http://www.w3.org/2000/svg">
<circle cx="34" cy="28" r="25" fill="#68B738"/>
<g clip-path="url(#clip0_95_1)">
<path d="M61.5591 16.8784C62.1364 15.96 62.9036 15.1757 63.8091 14.5784C64.3091 14.2284 64.6091 14.2284 64.9091 14.8784C65.3091 15.8284 65.6591 16.8284 65.3591 17.8784C65.3045 18.0565 65.2942 18.2452 65.3291 18.4282C65.3639 18.6112 65.4429 18.7829 65.5591 18.9284C65.8591 19.3284 66.1091 19.7284 66.3591 20.0784C66.6994 20.5103 66.9201 21.0241 66.9991 21.5682C67.078 22.1123 67.0125 22.6676 66.8091 23.1784C66.6256 23.6743 66.5908 24.213 66.7091 24.7284C66.809 25.2234 66.809 25.7334 66.7091 26.2284C66.6687 26.5991 66.5187 26.9494 66.2782 27.2344C66.0377 27.5194 65.7177 27.7262 65.3591 27.8284C64.7196 27.9501 64.1488 28.3069 63.7591 28.8284C63.7119 28.9052 63.6457 28.9686 63.5669 29.0124C63.488 29.0562 63.3993 29.0789 63.3091 29.0784C62.7091 29.1784 61.2091 27.8284 61.2091 27.2284V26.9284C61.2591 25.1284 61.1591 24.9784 59.5091 24.2284C59.1638 24.1066 58.8544 23.9004 58.6091 23.6284C58.3091 23.2284 57.9091 23.2784 57.4591 23.4284C57.0091 23.5784 56.7591 23.8784 56.8091 24.3784C56.9599 25.5889 57.0101 26.8097 56.9591 28.0284C56.9624 28.1675 56.9966 28.3041 57.0591 28.4284C58.6091 30.6784 59.2091 33.3284 59.9591 35.8784C60.5591 37.8284 61.6591 38.8784 63.6591 39.0284C63.9792 39.054 64.2968 39.1041 64.6091 39.1784C65.02 39.2444 65.4017 39.4322 65.7048 39.7174C66.0078 40.0027 66.2183 40.3723 66.3091 40.7784C66.6591 41.8284 66.4591 42.0784 65.4091 42.0784H62.1591C61.7384 42.0997 61.3259 41.9562 61.0091 41.6784C60.5031 41.2514 59.9282 40.9132 59.3091 40.6784C58.6247 40.4258 58.0323 39.9728 57.6091 39.3784C57.0234 38.5602 56.3531 37.806 55.6091 37.1284C54.2091 35.6784 52.7091 34.2784 51.4091 32.7784C50.4195 31.7563 49.8486 30.4006 49.8091 28.9784C49.8091 28.5284 49.7091 28.3284 49.2091 28.5284C49.0594 28.6234 48.8864 28.6753 48.7091 28.6784C47.3091 28.6784 46.6091 29.5284 46.1091 30.7784C45.6591 31.8284 45.0591 32.8284 44.5091 33.8784C44.1972 34.5357 44.0269 35.2511 44.0091 35.9784C44.0091 37.1784 44.3091 37.5784 45.4091 37.9784C46.1091 38.2284 46.7591 38.4784 47.1091 39.1784C47.5091 39.9784 47.4091 40.1784 46.5591 40.2284H43.1591C42.9631 40.2478 42.766 40.2052 42.5955 40.1065C42.425 40.0078 42.2899 39.8581 42.2091 39.6784L41.3091 38.1784C41.0438 37.7871 40.874 37.3389 40.8132 36.87C40.7524 36.4011 40.8024 35.9245 40.9591 35.4784C41.1755 34.6102 41.1926 33.7042 41.0091 32.8284C40.8831 32.2185 40.8939 31.5882 41.0409 30.9829C41.1879 30.3777 41.4674 29.8126 41.8591 29.3284C42.1591 28.9784 42.1591 28.8284 41.6591 28.7284C39.6146 28.2941 37.6325 27.6054 35.7591 26.6784C35.7459 26.6784 35.7331 26.6732 35.7238 26.6638C35.7144 26.6544 35.7091 26.6417 35.7091 26.6284C34.1091 26.0284 33.8091 26.1284 33.3591 27.7784C32.9591 29.1784 32.5591 30.5784 32.2591 32.0284C31.9091 33.6284 32.3091 35.1284 32.8091 36.6284C33.0091 37.2284 33.6091 37.1784 34.0591 37.3284C35.0591 37.6284 35.9091 38.0284 36.3091 39.0784C36.6591 39.8784 36.6091 39.9784 35.7591 39.9784C34.9091 39.9784 34.0591 39.9284 33.1591 39.9784C32.3996 39.9922 31.6584 39.7451 31.0591 39.2784C28.6591 37.6784 27.9591 35.2284 27.7591 32.5784C27.6591 30.9284 26.7591 29.6284 25.7091 28.3784C25.5091 28.1284 25.3091 28.0284 25.0091 28.2284C23.9359 28.8202 22.8153 29.3219 21.6591 29.7284C19.2462 30.5804 17.1289 32.1077 15.5591 34.1284C14.9729 34.8659 14.5933 35.746 14.4591 36.6784C14.3091 37.5784 14.5591 37.9784 15.4591 38.2284C16.3591 38.4784 16.8091 38.9784 16.9091 39.9284C16.9591 40.3284 16.8091 40.5284 16.4091 40.5284H12.3591C12.2266 40.519 12.0982 40.4778 11.9851 40.4081C11.8719 40.3385 11.7772 40.2425 11.7091 40.1284C11.081 39.3508 10.7449 38.3779 10.7591 37.3784C10.7329 35.6509 10.8837 33.9252 11.2091 32.2284C11.2759 31.7203 11.4656 31.2361 11.7618 30.8178C12.0581 30.3996 12.4519 30.06 12.9091 29.8284C15.8591 28.4284 17.4091 25.7784 18.8091 23.0284C19.1091 22.4784 18.8591 22.3784 18.3591 22.4284C16.9598 22.6227 15.634 23.1737 14.5091 24.0284C13.0362 25.1029 11.6487 26.2897 10.3591 27.5784C8.98394 28.9753 7.16046 29.8427 5.20911 30.0284C1.55911 30.2284 -0.140885 28.1784 0.00911497 24.8784C0.0426462 23.7532 0.466939 22.6748 1.20912 21.8284C1.46713 21.4939 1.81898 21.2439 2.21975 21.1103C2.62052 20.9767 3.05201 20.9656 3.45912 21.0784C4.20912 21.2784 4.40911 21.6784 4.10911 22.4284C3.95911 22.7284 3.75911 22.9784 3.60911 23.2784C3.39342 23.5849 3.22488 23.922 3.10911 24.2784C2.55911 25.7784 3.30911 26.8284 4.85911 26.9784C6.50911 27.1284 7.85912 26.4284 9.10912 25.4284C10.6151 24.2226 11.9595 22.8277 13.1091 21.2784C13.9687 20.1471 15.0512 19.2041 16.2895 18.5075C17.5279 17.8109 18.8959 17.3756 20.3091 17.2284C21.4591 17.0784 22.4591 16.5784 23.5591 16.2784C25.6164 15.6512 27.7586 15.3476 29.9091 15.3784C30.9052 15.4199 31.8974 15.2317 32.8091 14.8284C35.2591 13.8284 37.8091 13.8284 40.3591 14.3284C42.3591 14.7284 44.3591 15.2284 46.3091 15.7284C47.4696 15.9447 48.6629 15.9106 49.8091 15.6284C52.0034 15.0722 54.248 14.7372 56.5091 14.6284C57.9904 14.5564 59.4667 14.8482 60.8091 15.4784C61.8091 15.9284 61.8091 15.9284 61.5591 16.8784Z" fill="black"/>
</g>
<defs>
<clipPath id="clip0_95_1">
<rect width="67" height="57" fill="white"/>
</clipPath>
</defs>
</svg>
