<svg width="676" height="163" viewBox="0 0 676 163" fill="none" xmlns="http://www.w3.org/2000/svg">
<path d="M649 137.999H675V155.999H661" stroke="white" stroke-width="2" stroke-miterlimit="10" stroke-linecap="round" stroke-linejoin="round"/>
<path d="M653 155.999H649V141.999" stroke="white" stroke-width="2" stroke-miterlimit="10" stroke-linecap="round" stroke-linejoin="round"/>
<path d="M661 156L653 162V156" stroke="white" stroke-width="2" stroke-miterlimit="10" stroke-linecap="round" stroke-linejoin="round"/>
<path d="M29.7 2.767C29.593 2.317 29.189 2 28.728 2C28.726 2 28.724 2 28.722 2C23.455 2.033 10.647 2.916 5.476 10.38C2.79 14.258 2.559 19.293 4.789 25.345C4.806 25.392 4.841 25.424 4.864 25.467C4.067 27.44 3.758 28.753 3.75 28.79C3.634 29.33 3.979 29.862 4.519 29.978C4.589 29.993 4.659 30 4.729 30C5.19 30 5.605 29.679 5.706 29.21C5.727 29.108 8.275 18.837 17.283 12.832C17.743 12.526 17.867 11.905 17.56 11.445C17.253 10.985 16.633 10.86 16.173 11.168C11.065 14.573 7.919 19.176 6.069 22.824C4.745 18.246 5.092 14.447 7.121 11.519C11.114 5.755 20.585 4.365 26.302 4.071C25.072 5.872 23.728 9.174 23.728 15C23.728 18.12 22.843 20.522 21.099 22.14C18.303 24.731 13.761 24.974 10.439 24.724C9.887 24.679 9.408 25.095 9.366 25.646C9.324 26.196 9.737 26.676 10.287 26.718C10.952 26.769 11.662 26.8 12.4 26.8C15.782 26.8 19.727 26.137 22.458 23.606C24.628 21.595 25.728 18.7 25.728 15.001C25.728 5.902 29.158 3.905 29.175 3.896C29.591 3.687 29.809 3.219 29.7 2.767Z" fill="white"/>
</svg>
