<svg xmlns="http://www.w3.org/2000/svg" fill="none" viewBox="0 0 32 32"><path fill="#fff" d="M29.7 2.77a1 1 0 0 0-.97-.77c-5.28.03-18.08.92-23.25 8.38-2.69 3.88-2.92 8.91-.7 14.96l.08.13c-.8 1.97-1.1 3.28-1.11 3.32a1 1 0 0 0 1.96.42c.02-.1 2.57-10.37 11.57-16.38a1 1 0 1 0-1.1-1.66c-5.12 3.4-8.26 8-10.11 11.65-1.33-4.57-.98-8.37 1.05-11.3 4-5.76 13.46-7.15 19.18-7.45-1.23 1.8-2.57 5.1-2.57 10.93 0 3.12-.89 5.52-2.63 7.14-2.8 2.6-7.34 2.83-10.66 2.58a1 1 0 1 0-.15 2c.66.05 1.37.08 2.11.08 3.38 0 7.33-.66 10.06-3.2 2.17-2 3.27-4.9 3.27-8.6 0-9.1 3.43-11.1 3.45-11.1a1 1 0 0 0 .52-1.13Z"/></svg>
